G75*
G70*
%OFA0B0*%
%FSLAX24Y24*%
%IPPOS*%
%LPD*%
%AMOC8*
5,1,8,0,0,1.08239X$1,22.5*
%
%ADD10C,0.0000*%
%ADD11R,0.0591X0.0512*%
%ADD12R,0.0472X0.0472*%
%ADD13C,0.0520*%
%ADD14R,0.0500X0.0220*%
%ADD15R,0.0220X0.0500*%
%ADD16R,0.0512X0.0591*%
%ADD17R,0.0551X0.0827*%
%ADD18R,0.0118X0.0394*%
%ADD19R,0.0236X0.0709*%
%ADD20R,0.0551X0.0394*%
%ADD21C,0.0100*%
%ADD22C,0.0160*%
%ADD23R,0.0396X0.0396*%
%ADD24C,0.0060*%
%ADD25C,0.0396*%
D10*
X000517Y000325D02*
X000517Y010575D01*
X017017Y010575D01*
X017017Y000325D01*
X000517Y000325D01*
X012249Y008200D02*
X012251Y008226D01*
X012257Y008252D01*
X012267Y008277D01*
X012280Y008300D01*
X012296Y008320D01*
X012316Y008338D01*
X012338Y008353D01*
X012361Y008365D01*
X012387Y008373D01*
X012413Y008377D01*
X012439Y008377D01*
X012465Y008373D01*
X012491Y008365D01*
X012515Y008353D01*
X012536Y008338D01*
X012556Y008320D01*
X012572Y008300D01*
X012585Y008277D01*
X012595Y008252D01*
X012601Y008226D01*
X012603Y008200D01*
X012601Y008174D01*
X012595Y008148D01*
X012585Y008123D01*
X012572Y008100D01*
X012556Y008080D01*
X012536Y008062D01*
X012514Y008047D01*
X012491Y008035D01*
X012465Y008027D01*
X012439Y008023D01*
X012413Y008023D01*
X012387Y008027D01*
X012361Y008035D01*
X012337Y008047D01*
X012316Y008062D01*
X012296Y008080D01*
X012280Y008100D01*
X012267Y008123D01*
X012257Y008148D01*
X012251Y008174D01*
X012249Y008200D01*
X013981Y008200D02*
X013983Y008226D01*
X013989Y008252D01*
X013999Y008277D01*
X014012Y008300D01*
X014028Y008320D01*
X014048Y008338D01*
X014070Y008353D01*
X014093Y008365D01*
X014119Y008373D01*
X014145Y008377D01*
X014171Y008377D01*
X014197Y008373D01*
X014223Y008365D01*
X014247Y008353D01*
X014268Y008338D01*
X014288Y008320D01*
X014304Y008300D01*
X014317Y008277D01*
X014327Y008252D01*
X014333Y008226D01*
X014335Y008200D01*
X014333Y008174D01*
X014327Y008148D01*
X014317Y008123D01*
X014304Y008100D01*
X014288Y008080D01*
X014268Y008062D01*
X014246Y008047D01*
X014223Y008035D01*
X014197Y008027D01*
X014171Y008023D01*
X014145Y008023D01*
X014119Y008027D01*
X014093Y008035D01*
X014069Y008047D01*
X014048Y008062D01*
X014028Y008080D01*
X014012Y008100D01*
X013999Y008123D01*
X013989Y008148D01*
X013983Y008174D01*
X013981Y008200D01*
D11*
X013352Y007774D03*
X013352Y007026D03*
X011442Y007001D03*
X011442Y007749D03*
X010192Y007624D03*
X010192Y006876D03*
X008917Y006876D03*
X008917Y007624D03*
X007642Y007624D03*
X007642Y006876D03*
X006367Y006876D03*
X006367Y007624D03*
X005092Y007624D03*
X005092Y006876D03*
X005692Y005924D03*
X005692Y005176D03*
X003817Y006876D03*
X003817Y007624D03*
X002542Y007624D03*
X002542Y006876D03*
X001267Y006876D03*
X001267Y007624D03*
X002742Y004357D03*
X002742Y003609D03*
X002742Y002764D03*
X002742Y002016D03*
X009842Y002676D03*
X009842Y003424D03*
X010642Y003526D03*
X010642Y004274D03*
X013542Y003974D03*
X013542Y003226D03*
D12*
X010192Y008337D03*
X010192Y009163D03*
X008917Y009163D03*
X008917Y008337D03*
X007642Y008337D03*
X007642Y009163D03*
X006367Y009163D03*
X006367Y008337D03*
X005092Y008337D03*
X005092Y009163D03*
X003817Y009163D03*
X003817Y008337D03*
X002542Y008337D03*
X002542Y009163D03*
X001267Y009163D03*
X001267Y008337D03*
D13*
X011732Y005875D02*
X012252Y005875D01*
X012252Y004875D02*
X011732Y004875D01*
X011732Y003875D02*
X012252Y003875D01*
X012252Y002875D02*
X011732Y002875D01*
X011732Y001875D02*
X012252Y001875D01*
X012252Y000875D02*
X011732Y000875D01*
D14*
X009032Y002348D03*
X009032Y002663D03*
X009032Y002978D03*
X009032Y003293D03*
X009032Y003607D03*
X009032Y003922D03*
X009032Y004237D03*
X009032Y004552D03*
X005652Y004552D03*
X005652Y004237D03*
X005652Y003922D03*
X005652Y003607D03*
X005652Y003293D03*
X005652Y002978D03*
X005652Y002663D03*
X005652Y002348D03*
D15*
X006239Y001760D03*
X006554Y001760D03*
X006869Y001760D03*
X007184Y001760D03*
X007499Y001760D03*
X007814Y001760D03*
X008129Y001760D03*
X008444Y001760D03*
X008444Y005140D03*
X008129Y005140D03*
X007814Y005140D03*
X007499Y005140D03*
X007184Y005140D03*
X006869Y005140D03*
X006554Y005140D03*
X006239Y005140D03*
D16*
X004616Y003725D03*
X003868Y003725D03*
X003868Y002875D03*
X004616Y002875D03*
X013818Y001300D03*
X014566Y001300D03*
X014418Y004000D03*
X015166Y004000D03*
D17*
X014716Y005181D03*
X016487Y005181D03*
X016487Y009119D03*
X014716Y009119D03*
D18*
X014792Y003339D03*
X014989Y003339D03*
X015185Y003339D03*
X014595Y003339D03*
X014398Y003339D03*
X014398Y002284D03*
X014595Y002284D03*
X014792Y002284D03*
X014989Y002284D03*
X015185Y002284D03*
D19*
X004864Y001750D03*
X004392Y001750D03*
X003919Y001750D03*
D20*
X011784Y009275D03*
X012650Y008901D03*
X012650Y009649D03*
D21*
X010192Y008337D02*
X010192Y007624D01*
X010342Y006900D02*
X010192Y006876D01*
X010342Y006900D02*
X010317Y006775D01*
X010032Y006490D01*
X009182Y006490D01*
X008892Y006200D01*
X007592Y006200D01*
X006869Y005478D01*
X006869Y005140D01*
X006554Y005140D02*
X006554Y005463D01*
X007492Y006400D01*
X008592Y006400D01*
X009042Y006850D01*
X008917Y006876D01*
X009292Y006300D02*
X010342Y006300D01*
X010892Y005750D01*
X010892Y005375D01*
X011392Y004875D01*
X011992Y004875D01*
X011392Y004475D02*
X010692Y005175D01*
X010692Y005650D01*
X010242Y006100D01*
X009392Y006100D01*
X009092Y005800D01*
X007792Y005800D01*
X007499Y005507D01*
X007499Y005140D01*
X007814Y005140D02*
X007814Y005478D01*
X007942Y005600D01*
X009192Y005600D01*
X009492Y005900D01*
X010142Y005900D01*
X010492Y005550D01*
X010492Y004850D01*
X010642Y004700D01*
X010642Y004274D01*
X010791Y004275D01*
X012567Y004275D01*
X012842Y004000D01*
X012842Y002750D01*
X013642Y001950D01*
X014542Y001950D01*
X014592Y002000D01*
X014592Y002281D01*
X014595Y002284D01*
X014398Y002284D02*
X014392Y002291D01*
X014392Y002600D01*
X014292Y002700D01*
X013542Y002700D01*
X013542Y003226D01*
X013542Y002700D02*
X013192Y002700D01*
X013042Y002850D01*
X013042Y004175D01*
X012742Y004475D01*
X011392Y004475D01*
X011417Y003875D02*
X011992Y003875D01*
X011417Y003875D02*
X011092Y003550D01*
X011092Y002950D01*
X010292Y002150D01*
X009492Y002150D01*
X009294Y002348D01*
X009032Y002348D01*
X008444Y001760D02*
X008444Y001448D01*
X008542Y001350D01*
X010242Y001350D01*
X011767Y002875D01*
X011992Y002875D01*
X011992Y001875D02*
X011067Y001875D01*
X010342Y001150D01*
X008242Y001150D01*
X008129Y001263D01*
X008129Y001760D01*
X006869Y001760D02*
X006869Y001128D01*
X006407Y000665D01*
X002727Y000665D01*
X002067Y001325D01*
X002067Y006075D01*
X002068Y006075D01*
X001267Y006876D01*
X001267Y007624D02*
X001317Y007625D01*
X001317Y008325D01*
X001267Y008337D01*
X002542Y008337D02*
X002542Y007624D01*
X002542Y006876D02*
X002542Y006275D01*
X002292Y006025D01*
X002292Y003475D01*
X002300Y003609D01*
X002742Y003609D01*
X002742Y003486D01*
X002742Y003609D02*
X002742Y002764D01*
X002742Y002016D02*
X002742Y001550D01*
X002942Y001350D01*
X003392Y001250D02*
X003392Y004150D01*
X003842Y004600D01*
X003842Y006850D01*
X003817Y006876D01*
X003817Y007624D02*
X003817Y008337D01*
X003192Y008500D02*
X003192Y004632D01*
X002742Y004357D01*
X002292Y003475D02*
X002292Y001400D01*
X002842Y000850D01*
X006192Y000850D01*
X006554Y001213D01*
X006554Y001760D01*
X006239Y001760D02*
X006239Y001248D01*
X006042Y001050D01*
X003582Y001060D01*
X003392Y001250D01*
X003919Y001750D02*
X003892Y001841D01*
X003892Y002250D01*
X004042Y002400D01*
X004942Y002400D01*
X005204Y002663D01*
X005652Y002663D01*
X005579Y002950D02*
X005652Y002978D01*
X005594Y003250D02*
X005652Y003293D01*
X005594Y003250D02*
X006142Y003250D01*
X006342Y003450D01*
X006342Y003650D01*
X008889Y003650D01*
X009032Y003607D01*
X009842Y002676D02*
X009966Y002700D01*
X010242Y002700D01*
X010642Y003100D01*
X010642Y003526D01*
X008992Y006000D02*
X009292Y006300D01*
X008992Y006000D02*
X007692Y006000D01*
X007184Y005493D01*
X007184Y005140D01*
X006239Y005140D02*
X006103Y005276D01*
X005692Y005176D01*
X005142Y004700D02*
X005142Y006150D01*
X005417Y006425D01*
X005567Y006425D01*
X005992Y006850D01*
X006466Y006850D01*
X006367Y006876D01*
X006492Y006850D01*
X006992Y006550D02*
X006992Y008525D01*
X007217Y008750D01*
X008092Y008750D01*
X008267Y008925D01*
X008267Y009700D01*
X007642Y008337D02*
X007642Y007624D01*
X007692Y006900D02*
X007742Y006900D01*
X007642Y006876D01*
X007692Y006900D02*
X006239Y005448D01*
X006239Y005140D01*
X005652Y004552D02*
X005289Y004552D01*
X005142Y004700D01*
X004842Y004600D02*
X004842Y006300D01*
X005092Y006550D01*
X005092Y006876D01*
X005092Y007624D02*
X005092Y008337D01*
X006367Y008337D02*
X006367Y007624D01*
X006992Y006550D02*
X006366Y005924D01*
X005692Y005924D01*
X004842Y004600D02*
X005204Y004237D01*
X005652Y004237D01*
X005652Y003922D02*
X006069Y003922D01*
X006342Y003650D01*
X005652Y002348D02*
X005549Y002350D01*
X005242Y002350D01*
X004882Y001991D01*
X004864Y001750D01*
X003917Y002625D02*
X003717Y002425D01*
X003917Y002625D02*
X003917Y002825D01*
X003868Y002875D01*
X007742Y006900D02*
X007792Y006900D01*
X008917Y007624D02*
X008917Y008337D01*
X013542Y004400D02*
X014342Y005200D01*
X014492Y005150D01*
X014492Y004900D01*
X014892Y004500D01*
X015092Y004500D01*
X015166Y004426D01*
X015166Y004000D01*
X015242Y003950D01*
X015166Y004000D02*
X015142Y004250D01*
X015142Y003976D01*
X014792Y003626D01*
X014792Y003339D01*
X014792Y003000D01*
X014989Y002803D01*
X014989Y002284D01*
X014992Y002281D01*
X014992Y001500D01*
X014816Y001326D01*
X014566Y001300D01*
X013542Y003974D02*
X013542Y004400D01*
X014342Y005200D02*
X014716Y005181D01*
D22*
X016487Y005181D02*
X016487Y009119D01*
X016487Y009779D01*
X016117Y010150D01*
X007367Y010150D01*
X005092Y009163D02*
X004392Y009163D01*
X004417Y009138D01*
X004417Y004325D01*
X004592Y004150D01*
X004592Y003950D01*
X004642Y003776D01*
X004616Y003725D01*
X004758Y003607D01*
X005652Y003607D01*
X004649Y003607D01*
X004642Y003600D01*
X004642Y002901D01*
X004616Y002875D01*
X004743Y002978D01*
X005652Y002978D01*
X008014Y002978D01*
X008342Y002650D01*
X008919Y002650D01*
X009032Y002663D01*
X009855Y002663D01*
X009842Y002676D01*
X011992Y005875D02*
X012717Y006600D01*
X012717Y007625D01*
X012867Y007775D01*
X013351Y007775D01*
X013352Y007774D01*
X013352Y008487D01*
X013991Y009126D01*
X013467Y009650D01*
X012651Y009650D01*
X012650Y009649D01*
X011784Y009275D02*
X011442Y008933D01*
X011442Y007749D01*
X012168Y007749D01*
X012267Y007700D01*
X013991Y009126D02*
X014698Y009126D01*
X014716Y009119D01*
X004392Y009163D02*
X003817Y009163D01*
X002542Y009163D01*
X001267Y009163D01*
D23*
X003192Y008500D03*
X007367Y010150D03*
X008267Y009700D03*
X012267Y007700D03*
X008342Y002650D03*
X002942Y001350D03*
D24*
X003572Y001325D02*
X003572Y002456D01*
X003595Y002450D01*
X003837Y002450D01*
X003817Y002430D01*
X003712Y002325D01*
X003712Y002199D01*
X003671Y002158D01*
X003671Y001342D01*
X003747Y001266D01*
X004091Y001266D01*
X004159Y001334D01*
X004170Y001316D01*
X004194Y001292D01*
X004223Y001275D01*
X004256Y001266D01*
X004363Y001266D01*
X004363Y001721D01*
X004421Y001721D01*
X004421Y001266D01*
X004527Y001266D01*
X004560Y001275D01*
X004590Y001292D01*
X004614Y001316D01*
X004624Y001334D01*
X004692Y001266D01*
X005036Y001266D01*
X005112Y001342D01*
X005112Y001966D01*
X005301Y002155D01*
X005348Y002108D01*
X005956Y002108D01*
X006032Y002184D01*
X006032Y002768D01*
X007927Y002768D01*
X008014Y002681D01*
X008014Y002398D01*
X008090Y002322D01*
X008594Y002322D01*
X008652Y002380D01*
X008652Y002184D01*
X008728Y002108D01*
X009279Y002108D01*
X009312Y002075D01*
X009417Y001970D01*
X010366Y001970D01*
X011166Y002770D01*
X011272Y002875D01*
X011272Y003475D01*
X011426Y003629D01*
X011511Y003544D01*
X011654Y003485D01*
X012329Y003485D01*
X012473Y003544D01*
X012582Y003654D01*
X012642Y003797D01*
X012642Y003945D01*
X012662Y003925D01*
X012662Y002675D01*
X013462Y001875D01*
X013567Y001770D01*
X014616Y001770D01*
X014666Y001820D01*
X014772Y001925D01*
X014772Y001957D01*
X014792Y001957D01*
X014812Y001957D01*
X014812Y001725D01*
X014256Y001725D01*
X014188Y001657D01*
X014178Y001675D01*
X014153Y001699D01*
X014124Y001716D01*
X014091Y001725D01*
X013848Y001725D01*
X013848Y001330D01*
X013788Y001330D01*
X013788Y001725D01*
X013545Y001725D01*
X013512Y001716D01*
X013482Y001699D01*
X013458Y001675D01*
X013441Y001645D01*
X013432Y001612D01*
X012540Y001612D01*
X012582Y001654D02*
X012642Y001797D01*
X012642Y001953D01*
X012582Y002096D01*
X012473Y002206D01*
X012329Y002265D01*
X011654Y002265D01*
X011511Y002206D01*
X011401Y002096D01*
X011384Y002055D01*
X011201Y002055D01*
X011638Y002492D01*
X011654Y002485D01*
X012329Y002485D01*
X012473Y002544D01*
X012582Y002654D01*
X012642Y002797D01*
X012642Y002953D01*
X012582Y003096D01*
X012473Y003206D01*
X012329Y003265D01*
X011654Y003265D01*
X011511Y003206D01*
X011401Y003096D01*
X011342Y002953D01*
X011342Y002797D01*
X011369Y002732D01*
X010167Y001530D01*
X008684Y001530D01*
X008684Y002064D01*
X008608Y002140D01*
X006075Y002140D01*
X005999Y002064D01*
X005999Y001456D01*
X006059Y001396D01*
X006059Y001322D01*
X005967Y001230D01*
X003657Y001240D01*
X003572Y001325D01*
X003577Y001320D02*
X003693Y001320D01*
X003671Y001378D02*
X003572Y001378D01*
X003572Y001437D02*
X003671Y001437D01*
X003671Y001495D02*
X003572Y001495D01*
X003572Y001554D02*
X003671Y001554D01*
X003671Y001612D02*
X003572Y001612D01*
X003572Y001671D02*
X003671Y001671D01*
X003671Y001729D02*
X003572Y001729D01*
X003572Y001788D02*
X003671Y001788D01*
X003671Y001846D02*
X003572Y001846D01*
X003572Y001905D02*
X003671Y001905D01*
X003671Y001963D02*
X003572Y001963D01*
X003572Y002022D02*
X003671Y002022D01*
X003671Y002080D02*
X003572Y002080D01*
X003572Y002139D02*
X003671Y002139D01*
X003710Y002197D02*
X003572Y002197D01*
X003572Y002256D02*
X003712Y002256D01*
X003712Y002314D02*
X003572Y002314D01*
X003572Y002373D02*
X003760Y002373D01*
X003818Y002431D02*
X003572Y002431D01*
X003838Y002905D02*
X003838Y003695D01*
X003898Y003695D01*
X003898Y003300D01*
X003898Y002905D01*
X003838Y002905D01*
X003838Y002958D02*
X003898Y002958D01*
X003898Y003016D02*
X003838Y003016D01*
X003838Y003075D02*
X003898Y003075D01*
X003898Y003133D02*
X003838Y003133D01*
X003838Y003192D02*
X003898Y003192D01*
X003898Y003250D02*
X003838Y003250D01*
X003838Y003309D02*
X003898Y003309D01*
X003898Y003367D02*
X003838Y003367D01*
X003838Y003426D02*
X003898Y003426D01*
X003898Y003484D02*
X003838Y003484D01*
X003838Y003543D02*
X003898Y003543D01*
X003898Y003601D02*
X003838Y003601D01*
X003838Y003660D02*
X003898Y003660D01*
X003898Y003755D02*
X003838Y003755D01*
X003838Y004150D01*
X003646Y004150D01*
X004022Y004525D01*
X004022Y006490D01*
X004166Y006490D01*
X004207Y006531D01*
X004207Y004238D01*
X004300Y004145D01*
X004238Y004082D01*
X004228Y004100D01*
X004203Y004124D01*
X004174Y004141D01*
X004141Y004150D01*
X003898Y004150D01*
X003898Y003755D01*
X003898Y003777D02*
X003838Y003777D01*
X003838Y003835D02*
X003898Y003835D01*
X003898Y003894D02*
X003838Y003894D01*
X003838Y003952D02*
X003898Y003952D01*
X003898Y004011D02*
X003838Y004011D01*
X003838Y004069D02*
X003898Y004069D01*
X003898Y004128D02*
X003838Y004128D01*
X003741Y004245D02*
X004207Y004245D01*
X004207Y004303D02*
X003799Y004303D01*
X003858Y004362D02*
X004207Y004362D01*
X004207Y004420D02*
X003916Y004420D01*
X003975Y004479D02*
X004207Y004479D01*
X004207Y004537D02*
X004022Y004537D01*
X004022Y004596D02*
X004207Y004596D01*
X004207Y004654D02*
X004022Y004654D01*
X004022Y004713D02*
X004207Y004713D01*
X004207Y004771D02*
X004022Y004771D01*
X004022Y004830D02*
X004207Y004830D01*
X004207Y004888D02*
X004022Y004888D01*
X004022Y004947D02*
X004207Y004947D01*
X004207Y005005D02*
X004022Y005005D01*
X004022Y005064D02*
X004207Y005064D01*
X004207Y005122D02*
X004022Y005122D01*
X004022Y005181D02*
X004207Y005181D01*
X004207Y005239D02*
X004022Y005239D01*
X004022Y005298D02*
X004207Y005298D01*
X004207Y005356D02*
X004022Y005356D01*
X004022Y005415D02*
X004207Y005415D01*
X004207Y005473D02*
X004022Y005473D01*
X004022Y005532D02*
X004207Y005532D01*
X004207Y005590D02*
X004022Y005590D01*
X004022Y005649D02*
X004207Y005649D01*
X004207Y005707D02*
X004022Y005707D01*
X004022Y005766D02*
X004207Y005766D01*
X004207Y005824D02*
X004022Y005824D01*
X004022Y005883D02*
X004207Y005883D01*
X004207Y005941D02*
X004022Y005941D01*
X004022Y006000D02*
X004207Y006000D01*
X004207Y006058D02*
X004022Y006058D01*
X004022Y006117D02*
X004207Y006117D01*
X004207Y006175D02*
X004022Y006175D01*
X004022Y006234D02*
X004207Y006234D01*
X004207Y006292D02*
X004022Y006292D01*
X004022Y006351D02*
X004207Y006351D01*
X004207Y006409D02*
X004022Y006409D01*
X004022Y006468D02*
X004207Y006468D01*
X004202Y006526D02*
X004207Y006526D01*
X004627Y006526D02*
X004707Y006526D01*
X004743Y006490D02*
X004777Y006490D01*
X004662Y006375D01*
X004662Y004525D01*
X004767Y004420D01*
X004627Y004420D01*
X004627Y004412D02*
X004627Y008953D01*
X004725Y008953D01*
X004725Y008873D01*
X004802Y008797D01*
X005382Y008797D01*
X005458Y008873D01*
X005458Y009453D01*
X005382Y009530D01*
X004802Y009530D01*
X004725Y009453D01*
X004725Y009373D01*
X004183Y009373D01*
X004183Y009453D01*
X004107Y009530D01*
X003527Y009530D01*
X003450Y009453D01*
X003450Y009373D01*
X002908Y009373D01*
X002908Y009453D01*
X002832Y009530D01*
X002252Y009530D01*
X002175Y009453D01*
X002175Y009373D01*
X001633Y009373D01*
X001633Y009453D01*
X001557Y009530D01*
X000977Y009530D01*
X000900Y009453D01*
X000900Y008873D01*
X000977Y008797D01*
X001557Y008797D01*
X001633Y008873D01*
X001633Y008953D01*
X002175Y008953D01*
X002175Y008873D01*
X002252Y008797D01*
X002832Y008797D01*
X002908Y008873D01*
X002908Y008953D01*
X003450Y008953D01*
X003450Y008873D01*
X003527Y008797D01*
X004107Y008797D01*
X004183Y008873D01*
X004183Y008953D01*
X004207Y008953D01*
X004207Y007969D01*
X004166Y008010D01*
X004146Y008010D01*
X004183Y008047D01*
X004207Y008047D01*
X004183Y008047D02*
X004183Y008627D01*
X004107Y008703D01*
X003527Y008703D01*
X003520Y008696D01*
X003520Y008752D01*
X003444Y008828D01*
X002940Y008828D01*
X002864Y008752D01*
X002864Y008671D01*
X002832Y008703D01*
X002252Y008703D01*
X002175Y008627D01*
X002175Y008047D01*
X001633Y008047D01*
X001633Y008627D01*
X001557Y008703D01*
X000977Y008703D01*
X000900Y008627D01*
X000900Y008047D01*
X000642Y008047D01*
X000642Y007989D02*
X000896Y007989D01*
X000918Y008010D02*
X000841Y007934D01*
X000841Y007314D01*
X000906Y007250D01*
X000841Y007186D01*
X000841Y006566D01*
X000918Y006490D01*
X001398Y006490D01*
X001887Y006001D01*
X001887Y001250D01*
X001992Y001145D01*
X002652Y000485D01*
X006481Y000485D01*
X006587Y000590D01*
X007049Y001053D01*
X007049Y001380D01*
X007949Y001380D01*
X007949Y001188D01*
X008062Y001075D01*
X008167Y000970D01*
X010416Y000970D01*
X011141Y001695D01*
X011384Y001695D01*
X011401Y001654D01*
X011511Y001544D01*
X011654Y001485D01*
X012329Y001485D01*
X012473Y001544D01*
X012582Y001654D01*
X012589Y001671D02*
X013455Y001671D01*
X013432Y001612D02*
X013432Y001330D01*
X013788Y001330D01*
X013788Y001270D01*
X013848Y001270D01*
X013848Y000875D01*
X014091Y000875D01*
X014124Y000884D01*
X014153Y000901D01*
X014178Y000925D01*
X014188Y000943D01*
X014256Y000875D01*
X014875Y000875D01*
X014952Y000951D01*
X014952Y001207D01*
X015066Y001320D01*
X015119Y001372D01*
X015171Y001424D01*
X015171Y001425D01*
X015172Y001425D01*
X015172Y001499D01*
X015172Y001574D01*
X015172Y001957D01*
X015298Y001957D01*
X015374Y002034D01*
X015374Y002535D01*
X015298Y002611D01*
X015169Y002611D01*
X015169Y002878D01*
X015034Y003013D01*
X015101Y003013D01*
X015103Y003014D01*
X015109Y003013D01*
X015185Y003013D01*
X015185Y003339D01*
X015185Y003339D01*
X015185Y003013D01*
X015262Y003013D01*
X015295Y003021D01*
X015324Y003038D01*
X015348Y003063D01*
X015366Y003092D01*
X015374Y003125D01*
X015374Y003339D01*
X015185Y003339D01*
X015185Y003339D01*
X015374Y003339D01*
X015374Y003553D01*
X015369Y003575D01*
X015475Y003575D01*
X015552Y003651D01*
X015552Y004349D01*
X015475Y004425D01*
X015346Y004425D01*
X015346Y004501D01*
X015272Y004575D01*
X015166Y004680D01*
X015087Y004680D01*
X015121Y004714D01*
X015121Y005649D01*
X015045Y005725D01*
X014386Y005725D01*
X014310Y005649D01*
X014310Y005386D01*
X014303Y005382D01*
X014276Y005383D01*
X014272Y005380D01*
X014267Y005380D01*
X014235Y005348D01*
X014194Y005328D01*
X014186Y005302D01*
X014166Y005283D01*
X014165Y005278D01*
X013362Y004475D01*
X013362Y004360D01*
X013193Y004360D01*
X013152Y004319D01*
X013116Y004355D01*
X012816Y004655D01*
X012583Y004655D01*
X012642Y004797D01*
X012642Y004953D01*
X012582Y005096D01*
X012473Y005206D01*
X012329Y005265D01*
X011654Y005265D01*
X011511Y005206D01*
X011413Y005108D01*
X011072Y005450D01*
X011072Y005825D01*
X010966Y005930D01*
X010416Y006480D01*
X010276Y006480D01*
X010286Y006490D01*
X010541Y006490D01*
X010617Y006566D01*
X010617Y007186D01*
X010553Y007250D01*
X010617Y007314D01*
X010617Y007934D01*
X010541Y008010D01*
X010521Y008010D01*
X010558Y008047D01*
X011016Y008047D01*
X011016Y008059D02*
X011016Y007439D01*
X011084Y007371D01*
X011067Y007361D01*
X011042Y007337D01*
X011025Y007307D01*
X011016Y007274D01*
X011016Y007031D01*
X011412Y007031D01*
X011412Y006971D01*
X011472Y006971D01*
X011472Y007031D01*
X011867Y007031D01*
X011867Y007274D01*
X011858Y007307D01*
X011841Y007337D01*
X011817Y007361D01*
X011799Y007371D01*
X011867Y007439D01*
X011867Y007539D01*
X011939Y007539D01*
X011939Y007448D01*
X012015Y007372D01*
X012507Y007372D01*
X012507Y006687D01*
X012085Y006265D01*
X011654Y006265D01*
X011511Y006206D01*
X011401Y006096D01*
X011342Y005953D01*
X011342Y005797D01*
X011401Y005654D01*
X011511Y005544D01*
X011654Y005485D01*
X012329Y005485D01*
X012473Y005544D01*
X012582Y005654D01*
X012642Y005797D01*
X012642Y005953D01*
X012582Y006096D01*
X012546Y006132D01*
X012804Y006390D01*
X012927Y006513D01*
X012927Y006752D01*
X012935Y006720D01*
X012952Y006690D01*
X012977Y006666D01*
X013006Y006649D01*
X013039Y006640D01*
X013322Y006640D01*
X013322Y006996D01*
X013382Y006996D01*
X013382Y007056D01*
X013777Y007056D01*
X013777Y007299D01*
X013768Y007332D01*
X013751Y007362D01*
X013727Y007386D01*
X013709Y007396D01*
X013777Y007464D01*
X013777Y008084D01*
X013701Y008160D01*
X013562Y008160D01*
X013562Y008400D01*
X014078Y008916D01*
X014310Y008916D01*
X014310Y008651D01*
X014386Y008575D01*
X015045Y008575D01*
X015121Y008651D01*
X015121Y009586D01*
X015045Y009662D01*
X014386Y009662D01*
X014310Y009586D01*
X014310Y009336D01*
X014078Y009336D01*
X013677Y009737D01*
X013554Y009860D01*
X013055Y009860D01*
X013055Y009900D01*
X013015Y009940D01*
X016030Y009940D01*
X016277Y009692D01*
X016277Y009662D01*
X016158Y009662D01*
X016082Y009586D01*
X016082Y008651D01*
X016158Y008575D01*
X016277Y008575D01*
X016277Y005725D01*
X016158Y005725D01*
X016082Y005649D01*
X016082Y004714D01*
X016158Y004638D01*
X016817Y004638D01*
X016892Y004713D01*
X016892Y000450D01*
X000642Y000450D01*
X000642Y010450D01*
X007087Y010450D01*
X007039Y010402D01*
X007039Y009898D01*
X007115Y009822D01*
X007619Y009822D01*
X007695Y009898D01*
X007695Y009940D01*
X007939Y009940D01*
X007939Y009515D01*
X007928Y009521D01*
X007895Y009530D01*
X007672Y009530D01*
X007672Y009193D01*
X008008Y009193D01*
X008008Y009379D01*
X008015Y009372D01*
X008087Y009372D01*
X008087Y009000D01*
X008017Y008930D01*
X008008Y008930D01*
X008008Y009133D01*
X007672Y009133D01*
X007672Y009193D01*
X007612Y009193D01*
X007612Y009133D01*
X007275Y009133D01*
X007275Y008930D01*
X007142Y008930D01*
X007037Y008825D01*
X006812Y008600D01*
X006812Y006625D01*
X006792Y006605D01*
X006792Y007186D01*
X006728Y007250D01*
X006792Y007314D01*
X006792Y007934D01*
X006716Y008010D01*
X006696Y008010D01*
X006733Y008047D01*
X006812Y008047D01*
X006812Y007989D02*
X006737Y007989D01*
X006733Y008047D02*
X006733Y008627D01*
X006657Y008703D01*
X006077Y008703D01*
X006000Y008627D01*
X006000Y008047D01*
X005458Y008047D01*
X005458Y008627D01*
X005382Y008703D01*
X004802Y008703D01*
X004725Y008627D01*
X004725Y008047D01*
X004627Y008047D01*
X004627Y007989D02*
X004721Y007989D01*
X004743Y008010D02*
X004666Y007934D01*
X004666Y007314D01*
X004731Y007250D01*
X004666Y007186D01*
X004666Y006566D01*
X004743Y006490D01*
X004755Y006468D02*
X004627Y006468D01*
X004627Y006409D02*
X004696Y006409D01*
X004662Y006351D02*
X004627Y006351D01*
X004627Y006292D02*
X004662Y006292D01*
X004662Y006234D02*
X004627Y006234D01*
X004627Y006175D02*
X004662Y006175D01*
X004662Y006117D02*
X004627Y006117D01*
X004627Y006058D02*
X004662Y006058D01*
X004662Y006000D02*
X004627Y006000D01*
X004627Y005941D02*
X004662Y005941D01*
X004662Y005883D02*
X004627Y005883D01*
X004627Y005824D02*
X004662Y005824D01*
X004662Y005766D02*
X004627Y005766D01*
X004627Y005707D02*
X004662Y005707D01*
X004662Y005649D02*
X004627Y005649D01*
X004627Y005590D02*
X004662Y005590D01*
X004662Y005532D02*
X004627Y005532D01*
X004627Y005473D02*
X004662Y005473D01*
X004662Y005415D02*
X004627Y005415D01*
X004627Y005356D02*
X004662Y005356D01*
X004662Y005298D02*
X004627Y005298D01*
X004627Y005239D02*
X004662Y005239D01*
X004662Y005181D02*
X004627Y005181D01*
X004627Y005122D02*
X004662Y005122D01*
X004662Y005064D02*
X004627Y005064D01*
X004627Y005005D02*
X004662Y005005D01*
X004662Y004947D02*
X004627Y004947D01*
X004627Y004888D02*
X004662Y004888D01*
X004662Y004830D02*
X004627Y004830D01*
X004627Y004771D02*
X004662Y004771D01*
X004662Y004713D02*
X004627Y004713D01*
X004627Y004654D02*
X004662Y004654D01*
X004662Y004596D02*
X004627Y004596D01*
X004627Y004537D02*
X004662Y004537D01*
X004627Y004479D02*
X004709Y004479D01*
X004767Y004420D02*
X005130Y004057D01*
X005274Y004057D01*
X005272Y004050D01*
X005272Y003947D01*
X005627Y003947D01*
X005627Y003897D01*
X005272Y003897D01*
X005272Y003817D01*
X005002Y003817D01*
X005002Y004074D01*
X004925Y004150D01*
X004802Y004150D01*
X004802Y004237D01*
X004627Y004412D01*
X004677Y004362D02*
X004826Y004362D01*
X004884Y004303D02*
X004736Y004303D01*
X004794Y004245D02*
X004943Y004245D01*
X005001Y004186D02*
X004802Y004186D01*
X004948Y004128D02*
X005060Y004128D01*
X005002Y004069D02*
X005118Y004069D01*
X005002Y004011D02*
X005272Y004011D01*
X005272Y003952D02*
X005002Y003952D01*
X005002Y003894D02*
X005272Y003894D01*
X005272Y003835D02*
X005002Y003835D01*
X005002Y003397D02*
X005272Y003397D01*
X005272Y003318D01*
X005627Y003318D01*
X005627Y003268D01*
X005272Y003268D01*
X005272Y003188D01*
X005002Y003188D01*
X005002Y003224D01*
X004926Y003300D01*
X005002Y003376D01*
X005002Y003397D01*
X004993Y003367D02*
X005272Y003367D01*
X005272Y003250D02*
X004976Y003250D01*
X005002Y003192D02*
X005272Y003192D01*
X004934Y003309D02*
X005627Y003309D01*
X005677Y003309D02*
X008652Y003309D01*
X008652Y003367D02*
X006032Y003367D01*
X006032Y003318D02*
X006032Y003420D01*
X006027Y003439D01*
X006032Y003444D01*
X006032Y003771D01*
X006027Y003776D01*
X006032Y003795D01*
X006032Y003897D01*
X005677Y003897D01*
X005677Y003947D01*
X006032Y003947D01*
X006032Y004050D01*
X006027Y004068D01*
X006032Y004074D01*
X006032Y004716D01*
X005958Y004790D01*
X006041Y004790D01*
X006043Y004792D01*
X006075Y004760D01*
X008608Y004760D01*
X008684Y004836D01*
X008684Y005420D01*
X009266Y005420D01*
X009566Y005720D01*
X010067Y005720D01*
X010312Y005475D01*
X010312Y004775D01*
X010427Y004660D01*
X010293Y004660D01*
X010216Y004584D01*
X010216Y003964D01*
X010281Y003900D01*
X010216Y003836D01*
X010216Y003784D01*
X010187Y003801D01*
X010154Y003810D01*
X009872Y003810D01*
X009872Y003454D01*
X009812Y003454D01*
X009812Y003810D01*
X009529Y003810D01*
X009496Y003801D01*
X009467Y003784D01*
X009442Y003760D01*
X009425Y003730D01*
X009416Y003697D01*
X009416Y003454D01*
X009812Y003454D01*
X009812Y003394D01*
X009416Y003394D01*
X009416Y003151D01*
X009425Y003118D01*
X009442Y003088D01*
X009467Y003064D01*
X009484Y003054D01*
X009416Y002986D01*
X009416Y002873D01*
X009412Y002873D01*
X009412Y003456D01*
X009407Y003461D01*
X009412Y003480D01*
X009412Y003582D01*
X009057Y003582D01*
X009057Y003632D01*
X009412Y003632D01*
X009412Y003735D01*
X009407Y003754D01*
X009412Y003759D01*
X009412Y004716D01*
X009336Y004792D01*
X008728Y004792D01*
X008652Y004716D01*
X008652Y003759D01*
X008657Y003754D01*
X008652Y003735D01*
X008652Y003632D01*
X009007Y003632D01*
X009007Y003582D01*
X008652Y003582D01*
X008652Y003480D01*
X008657Y003461D01*
X008652Y003456D01*
X008652Y002920D01*
X008594Y002978D01*
X008311Y002978D01*
X008101Y003188D01*
X006032Y003188D01*
X006032Y003268D01*
X005677Y003268D01*
X005677Y003318D01*
X006032Y003318D01*
X006032Y003250D02*
X008652Y003250D01*
X008652Y003192D02*
X006032Y003192D01*
X006030Y003426D02*
X008652Y003426D01*
X008652Y003484D02*
X006032Y003484D01*
X006032Y003543D02*
X008652Y003543D01*
X008652Y003660D02*
X006032Y003660D01*
X006032Y003718D02*
X008652Y003718D01*
X008652Y003777D02*
X006027Y003777D01*
X006032Y003835D02*
X008652Y003835D01*
X008652Y003894D02*
X006032Y003894D01*
X006032Y003952D02*
X008652Y003952D01*
X008652Y004011D02*
X006032Y004011D01*
X006027Y004069D02*
X008652Y004069D01*
X008652Y004128D02*
X006032Y004128D01*
X006032Y004186D02*
X008652Y004186D01*
X008652Y004245D02*
X006032Y004245D01*
X006032Y004303D02*
X008652Y004303D01*
X008652Y004362D02*
X006032Y004362D01*
X006032Y004420D02*
X008652Y004420D01*
X008652Y004479D02*
X006032Y004479D01*
X006032Y004537D02*
X008652Y004537D01*
X008652Y004596D02*
X006032Y004596D01*
X006032Y004654D02*
X008652Y004654D01*
X008652Y004713D02*
X006032Y004713D01*
X006064Y004771D02*
X005977Y004771D01*
X006032Y003601D02*
X009007Y003601D01*
X009057Y003601D02*
X009416Y003601D01*
X009412Y003543D02*
X009416Y003543D01*
X009412Y003484D02*
X009416Y003484D01*
X009412Y003426D02*
X009812Y003426D01*
X009812Y003484D02*
X009872Y003484D01*
X009872Y003543D02*
X009812Y003543D01*
X009812Y003601D02*
X009872Y003601D01*
X009872Y003660D02*
X009812Y003660D01*
X009812Y003718D02*
X009872Y003718D01*
X009872Y003777D02*
X009812Y003777D01*
X009459Y003777D02*
X009412Y003777D01*
X009412Y003835D02*
X010216Y003835D01*
X010274Y003894D02*
X009412Y003894D01*
X009412Y003952D02*
X010229Y003952D01*
X010216Y004011D02*
X009412Y004011D01*
X009412Y004069D02*
X010216Y004069D01*
X010216Y004128D02*
X009412Y004128D01*
X009412Y004186D02*
X010216Y004186D01*
X010216Y004245D02*
X009412Y004245D01*
X009412Y004303D02*
X010216Y004303D01*
X010216Y004362D02*
X009412Y004362D01*
X009412Y004420D02*
X010216Y004420D01*
X010216Y004479D02*
X009412Y004479D01*
X009412Y004537D02*
X010216Y004537D01*
X010228Y004596D02*
X009412Y004596D01*
X009412Y004654D02*
X010287Y004654D01*
X010375Y004713D02*
X009412Y004713D01*
X009357Y004771D02*
X010316Y004771D01*
X010312Y004830D02*
X008677Y004830D01*
X008684Y004888D02*
X010312Y004888D01*
X010312Y004947D02*
X008684Y004947D01*
X008684Y005005D02*
X010312Y005005D01*
X010312Y005064D02*
X008684Y005064D01*
X008684Y005122D02*
X010312Y005122D01*
X010312Y005181D02*
X008684Y005181D01*
X008684Y005239D02*
X010312Y005239D01*
X010312Y005298D02*
X008684Y005298D01*
X008684Y005356D02*
X010312Y005356D01*
X010312Y005415D02*
X008684Y005415D01*
X009319Y005473D02*
X010312Y005473D01*
X010256Y005532D02*
X009378Y005532D01*
X009436Y005590D02*
X010197Y005590D01*
X010139Y005649D02*
X009495Y005649D01*
X009553Y005707D02*
X010080Y005707D01*
X010663Y006234D02*
X011578Y006234D01*
X011480Y006175D02*
X010721Y006175D01*
X010780Y006117D02*
X011422Y006117D01*
X011385Y006058D02*
X010838Y006058D01*
X010897Y006000D02*
X011361Y006000D01*
X011342Y005941D02*
X010955Y005941D01*
X011014Y005883D02*
X011342Y005883D01*
X011342Y005824D02*
X011072Y005824D01*
X011072Y005766D02*
X011355Y005766D01*
X011379Y005707D02*
X011072Y005707D01*
X011072Y005649D02*
X011407Y005649D01*
X011465Y005590D02*
X011072Y005590D01*
X011072Y005532D02*
X011542Y005532D01*
X011591Y005239D02*
X011282Y005239D01*
X011224Y005298D02*
X014181Y005298D01*
X014126Y005239D02*
X012392Y005239D01*
X012498Y005181D02*
X014068Y005181D01*
X014009Y005122D02*
X012556Y005122D01*
X012596Y005064D02*
X013951Y005064D01*
X013892Y005005D02*
X012620Y005005D01*
X012642Y004947D02*
X013834Y004947D01*
X013775Y004888D02*
X012642Y004888D01*
X012642Y004830D02*
X013717Y004830D01*
X013658Y004771D02*
X012631Y004771D01*
X012606Y004713D02*
X013600Y004713D01*
X013541Y004654D02*
X012817Y004654D01*
X012876Y004596D02*
X013483Y004596D01*
X013424Y004537D02*
X012934Y004537D01*
X012993Y004479D02*
X013366Y004479D01*
X013362Y004420D02*
X013051Y004420D01*
X013110Y004362D02*
X013362Y004362D01*
X013756Y004360D02*
X014310Y004914D01*
X014310Y004714D01*
X014386Y004638D01*
X014499Y004638D01*
X014720Y004418D01*
X014691Y004425D01*
X014448Y004425D01*
X014448Y004030D01*
X014388Y004030D01*
X014388Y004425D01*
X014145Y004425D01*
X014112Y004416D01*
X014082Y004399D01*
X014058Y004375D01*
X014041Y004345D01*
X014032Y004312D01*
X014032Y004030D01*
X014388Y004030D01*
X014388Y003970D01*
X014032Y003970D01*
X014032Y003688D01*
X014041Y003655D01*
X014058Y003625D01*
X014082Y003601D01*
X014112Y003584D01*
X014145Y003575D01*
X014209Y003575D01*
X014209Y003089D01*
X014285Y003013D01*
X014511Y003013D01*
X014513Y003014D01*
X014519Y003013D01*
X014595Y003013D01*
X014612Y003013D01*
X014612Y002925D01*
X014717Y002820D01*
X014809Y002729D01*
X014809Y002611D01*
X014792Y002611D01*
X014792Y002284D01*
X014792Y001957D01*
X014792Y002284D01*
X014792Y002284D01*
X014792Y002284D01*
X014792Y002611D01*
X014715Y002611D01*
X014709Y002609D01*
X014708Y002611D01*
X014572Y002611D01*
X014572Y002675D01*
X014466Y002780D01*
X014366Y002880D01*
X013931Y002880D01*
X013967Y002916D01*
X013967Y003536D01*
X013903Y003600D01*
X013967Y003664D01*
X013967Y004284D01*
X013891Y004360D01*
X013756Y004360D01*
X013758Y004362D02*
X014050Y004362D01*
X014032Y004303D02*
X013948Y004303D01*
X013967Y004245D02*
X014032Y004245D01*
X014032Y004186D02*
X013967Y004186D01*
X013967Y004128D02*
X014032Y004128D01*
X014032Y004069D02*
X013967Y004069D01*
X013967Y004011D02*
X014388Y004011D01*
X014388Y004069D02*
X014448Y004069D01*
X014448Y004128D02*
X014388Y004128D01*
X014388Y004186D02*
X014448Y004186D01*
X014448Y004245D02*
X014388Y004245D01*
X014388Y004303D02*
X014448Y004303D01*
X014448Y004362D02*
X014388Y004362D01*
X014388Y004420D02*
X014448Y004420D01*
X014600Y004537D02*
X013933Y004537D01*
X013875Y004479D02*
X014659Y004479D01*
X014710Y004420D02*
X014717Y004420D01*
X014542Y004596D02*
X013992Y004596D01*
X014050Y004654D02*
X014370Y004654D01*
X014312Y004713D02*
X014109Y004713D01*
X014167Y004771D02*
X014310Y004771D01*
X014310Y004830D02*
X014226Y004830D01*
X014284Y004888D02*
X014310Y004888D01*
X014243Y005356D02*
X011165Y005356D01*
X011107Y005415D02*
X014310Y005415D01*
X014310Y005473D02*
X011072Y005473D01*
X011341Y005181D02*
X011486Y005181D01*
X011427Y005122D02*
X011399Y005122D01*
X012442Y005532D02*
X014310Y005532D01*
X014310Y005590D02*
X012518Y005590D01*
X012577Y005649D02*
X014310Y005649D01*
X014369Y005707D02*
X012604Y005707D01*
X012628Y005766D02*
X016277Y005766D01*
X016277Y005824D02*
X012642Y005824D01*
X012642Y005883D02*
X016277Y005883D01*
X016277Y005941D02*
X012642Y005941D01*
X012622Y006000D02*
X016277Y006000D01*
X016277Y006058D02*
X012598Y006058D01*
X012562Y006117D02*
X016277Y006117D01*
X016277Y006175D02*
X012589Y006175D01*
X012647Y006234D02*
X016277Y006234D01*
X016277Y006292D02*
X012706Y006292D01*
X012764Y006351D02*
X016277Y006351D01*
X016277Y006409D02*
X012823Y006409D01*
X012881Y006468D02*
X016277Y006468D01*
X016277Y006526D02*
X012927Y006526D01*
X012927Y006585D02*
X016277Y006585D01*
X016277Y006643D02*
X013675Y006643D01*
X013664Y006640D02*
X013697Y006649D01*
X013727Y006666D01*
X013751Y006690D01*
X013768Y006720D01*
X013777Y006753D01*
X013777Y006996D01*
X013382Y006996D01*
X013382Y006640D01*
X013664Y006640D01*
X013757Y006702D02*
X016277Y006702D01*
X016277Y006760D02*
X013777Y006760D01*
X013777Y006819D02*
X016277Y006819D01*
X016277Y006877D02*
X013777Y006877D01*
X013777Y006936D02*
X016277Y006936D01*
X016277Y006994D02*
X013777Y006994D01*
X013777Y007111D02*
X016277Y007111D01*
X016277Y007053D02*
X013382Y007053D01*
X013382Y006994D02*
X013322Y006994D01*
X013322Y006936D02*
X013382Y006936D01*
X013382Y006877D02*
X013322Y006877D01*
X013322Y006819D02*
X013382Y006819D01*
X013382Y006760D02*
X013322Y006760D01*
X013322Y006702D02*
X013382Y006702D01*
X013382Y006643D02*
X013322Y006643D01*
X013028Y006643D02*
X012927Y006643D01*
X012927Y006702D02*
X012946Y006702D01*
X012507Y006702D02*
X011860Y006702D01*
X011858Y006695D02*
X011867Y006728D01*
X011867Y006971D01*
X011472Y006971D01*
X011472Y006615D01*
X011754Y006615D01*
X011787Y006624D01*
X011817Y006641D01*
X011841Y006665D01*
X011858Y006695D01*
X011819Y006643D02*
X012463Y006643D01*
X012404Y006585D02*
X010617Y006585D01*
X010617Y006643D02*
X011065Y006643D01*
X011067Y006641D02*
X011096Y006624D01*
X011129Y006615D01*
X011412Y006615D01*
X011412Y006971D01*
X011016Y006971D01*
X011016Y006728D01*
X011025Y006695D01*
X011042Y006665D01*
X011067Y006641D01*
X011023Y006702D02*
X010617Y006702D01*
X010617Y006760D02*
X011016Y006760D01*
X011016Y006819D02*
X010617Y006819D01*
X010617Y006877D02*
X011016Y006877D01*
X011016Y006936D02*
X010617Y006936D01*
X010617Y006994D02*
X011412Y006994D01*
X011412Y006936D02*
X011472Y006936D01*
X011472Y006994D02*
X012507Y006994D01*
X012507Y006936D02*
X011867Y006936D01*
X011867Y006877D02*
X012507Y006877D01*
X012507Y006819D02*
X011867Y006819D01*
X011867Y006760D02*
X012507Y006760D01*
X012346Y006526D02*
X010577Y006526D01*
X010487Y006409D02*
X012229Y006409D01*
X012287Y006468D02*
X010429Y006468D01*
X010546Y006351D02*
X012170Y006351D01*
X012112Y006292D02*
X010604Y006292D01*
X010617Y007053D02*
X011016Y007053D01*
X011016Y007111D02*
X010617Y007111D01*
X010617Y007170D02*
X011016Y007170D01*
X011016Y007228D02*
X010575Y007228D01*
X010589Y007287D02*
X011020Y007287D01*
X011051Y007345D02*
X010617Y007345D01*
X010617Y007404D02*
X011052Y007404D01*
X011016Y007462D02*
X010617Y007462D01*
X010617Y007521D02*
X011016Y007521D01*
X011016Y007579D02*
X010617Y007579D01*
X010617Y007638D02*
X011016Y007638D01*
X011016Y007696D02*
X010617Y007696D01*
X010617Y007755D02*
X011016Y007755D01*
X011016Y007813D02*
X010617Y007813D01*
X010617Y007872D02*
X011016Y007872D01*
X011016Y007930D02*
X010617Y007930D01*
X010562Y007989D02*
X011016Y007989D01*
X011016Y008059D02*
X011093Y008135D01*
X011232Y008135D01*
X011232Y009020D01*
X011378Y009166D01*
X011378Y009526D01*
X011454Y009602D01*
X012113Y009602D01*
X012189Y009526D01*
X012189Y009024D01*
X012113Y008948D01*
X011754Y008948D01*
X011652Y008846D01*
X011652Y008135D01*
X011791Y008135D01*
X011867Y008059D01*
X011867Y007959D01*
X011946Y007959D01*
X012015Y008028D01*
X012164Y008028D01*
X012118Y008139D01*
X012118Y008261D01*
X012165Y008374D01*
X012252Y008460D01*
X012364Y008507D01*
X012487Y008507D01*
X012600Y008460D01*
X012686Y008374D01*
X012733Y008261D01*
X012733Y008139D01*
X012686Y008026D01*
X012600Y007940D01*
X012595Y007938D01*
X012595Y007800D01*
X012657Y007862D01*
X012780Y007985D01*
X012926Y007985D01*
X012926Y008084D01*
X013003Y008160D01*
X013142Y008160D01*
X013142Y008574D01*
X013694Y009126D01*
X013380Y009440D01*
X013055Y009440D01*
X013055Y009398D01*
X012979Y009322D01*
X012320Y009322D01*
X012244Y009398D01*
X012244Y009900D01*
X012284Y009940D01*
X008595Y009940D01*
X008595Y009498D01*
X008601Y009504D01*
X008630Y009521D01*
X008663Y009530D01*
X008887Y009530D01*
X008887Y009193D01*
X008887Y009133D01*
X008947Y009133D01*
X008947Y009193D01*
X009283Y009193D01*
X009283Y009417D01*
X009274Y009450D01*
X009257Y009479D01*
X009233Y009504D01*
X009203Y009521D01*
X009170Y009530D01*
X008947Y009530D01*
X008947Y009193D01*
X008887Y009193D01*
X008550Y009193D01*
X008550Y009404D01*
X008519Y009372D01*
X008447Y009372D01*
X008447Y008850D01*
X008341Y008745D01*
X008166Y008570D01*
X008008Y008570D01*
X008008Y008047D01*
X008550Y008047D01*
X008587Y008010D01*
X008568Y008010D01*
X008491Y007934D01*
X008491Y007314D01*
X008556Y007250D01*
X008491Y007186D01*
X008491Y006580D01*
X008067Y006580D01*
X008067Y007186D01*
X008003Y007250D01*
X008067Y007314D01*
X008067Y007934D01*
X007991Y008010D01*
X007971Y008010D01*
X008008Y008047D01*
X008008Y008106D02*
X008550Y008106D01*
X008550Y008164D02*
X008008Y008164D01*
X008008Y008223D02*
X008550Y008223D01*
X008550Y008281D02*
X008008Y008281D01*
X008008Y008340D02*
X008550Y008340D01*
X008550Y008398D02*
X008008Y008398D01*
X008008Y008457D02*
X008550Y008457D01*
X008550Y008515D02*
X008008Y008515D01*
X008170Y008574D02*
X008550Y008574D01*
X008550Y008627D02*
X008550Y008047D01*
X008546Y007989D02*
X008012Y007989D01*
X008067Y007930D02*
X008491Y007930D01*
X008491Y007872D02*
X008067Y007872D01*
X008067Y007813D02*
X008491Y007813D01*
X008491Y007755D02*
X008067Y007755D01*
X008067Y007696D02*
X008491Y007696D01*
X008491Y007638D02*
X008067Y007638D01*
X008067Y007579D02*
X008491Y007579D01*
X008491Y007521D02*
X008067Y007521D01*
X008067Y007462D02*
X008491Y007462D01*
X008491Y007404D02*
X008067Y007404D01*
X008067Y007345D02*
X008491Y007345D01*
X008519Y007287D02*
X008039Y007287D01*
X008025Y007228D02*
X008534Y007228D01*
X008491Y007170D02*
X008067Y007170D01*
X008067Y007111D02*
X008491Y007111D01*
X008491Y007053D02*
X008067Y007053D01*
X008067Y006994D02*
X008491Y006994D01*
X008491Y006936D02*
X008067Y006936D01*
X008067Y006877D02*
X008491Y006877D01*
X008491Y006819D02*
X008067Y006819D01*
X008067Y006760D02*
X008491Y006760D01*
X008491Y006702D02*
X008067Y006702D01*
X008067Y006643D02*
X008491Y006643D01*
X008491Y006585D02*
X008067Y006585D01*
X006812Y006643D02*
X006792Y006643D01*
X006792Y006702D02*
X006812Y006702D01*
X006812Y006760D02*
X006792Y006760D01*
X006792Y006819D02*
X006812Y006819D01*
X006812Y006877D02*
X006792Y006877D01*
X006792Y006936D02*
X006812Y006936D01*
X006812Y006994D02*
X006792Y006994D01*
X006792Y007053D02*
X006812Y007053D01*
X006812Y007111D02*
X006792Y007111D01*
X006792Y007170D02*
X006812Y007170D01*
X006812Y007228D02*
X006750Y007228D01*
X006764Y007287D02*
X006812Y007287D01*
X006812Y007345D02*
X006792Y007345D01*
X006792Y007404D02*
X006812Y007404D01*
X006812Y007462D02*
X006792Y007462D01*
X006792Y007521D02*
X006812Y007521D01*
X006812Y007579D02*
X006792Y007579D01*
X006792Y007638D02*
X006812Y007638D01*
X006812Y007696D02*
X006792Y007696D01*
X006792Y007755D02*
X006812Y007755D01*
X006812Y007813D02*
X006792Y007813D01*
X006792Y007872D02*
X006812Y007872D01*
X006812Y007930D02*
X006792Y007930D01*
X006812Y008106D02*
X006733Y008106D01*
X006733Y008164D02*
X006812Y008164D01*
X006812Y008223D02*
X006733Y008223D01*
X006733Y008281D02*
X006812Y008281D01*
X006812Y008340D02*
X006733Y008340D01*
X006733Y008398D02*
X006812Y008398D01*
X006812Y008457D02*
X006733Y008457D01*
X006733Y008515D02*
X006812Y008515D01*
X006812Y008574D02*
X006733Y008574D01*
X006728Y008632D02*
X006844Y008632D01*
X006903Y008691D02*
X006669Y008691D01*
X006653Y008806D02*
X006683Y008823D01*
X006707Y008847D01*
X006724Y008877D01*
X006733Y008910D01*
X006733Y009133D01*
X006397Y009133D01*
X006397Y009193D01*
X006733Y009193D01*
X006733Y009417D01*
X006724Y009450D01*
X006707Y009479D01*
X006683Y009504D01*
X006653Y009521D01*
X006620Y009530D01*
X006397Y009530D01*
X006397Y009193D01*
X006337Y009193D01*
X006337Y009133D01*
X006397Y009133D01*
X006397Y008797D01*
X006620Y008797D01*
X006653Y008806D01*
X006656Y008808D02*
X007020Y008808D01*
X007078Y008866D02*
X006718Y008866D01*
X006733Y008925D02*
X007137Y008925D01*
X007275Y008983D02*
X006733Y008983D01*
X006733Y009042D02*
X007275Y009042D01*
X007275Y009100D02*
X006733Y009100D01*
X006733Y009217D02*
X007275Y009217D01*
X007275Y009193D02*
X007612Y009193D01*
X007612Y009530D01*
X007388Y009530D01*
X007355Y009521D01*
X007326Y009504D01*
X007301Y009479D01*
X007284Y009450D01*
X007275Y009417D01*
X007275Y009193D01*
X007275Y009276D02*
X006733Y009276D01*
X006733Y009334D02*
X007275Y009334D01*
X007275Y009393D02*
X006733Y009393D01*
X006723Y009451D02*
X007285Y009451D01*
X007336Y009510D02*
X006672Y009510D01*
X006397Y009510D02*
X006337Y009510D01*
X006337Y009530D02*
X006113Y009530D01*
X006080Y009521D01*
X006051Y009504D01*
X006026Y009479D01*
X006009Y009450D01*
X006000Y009417D01*
X006000Y009193D01*
X006337Y009193D01*
X006337Y009530D01*
X006337Y009451D02*
X006397Y009451D01*
X006397Y009393D02*
X006337Y009393D01*
X006337Y009334D02*
X006397Y009334D01*
X006397Y009276D02*
X006337Y009276D01*
X006337Y009217D02*
X006397Y009217D01*
X006397Y009159D02*
X007612Y009159D01*
X007612Y009217D02*
X007672Y009217D01*
X007672Y009159D02*
X008087Y009159D01*
X008087Y009217D02*
X008008Y009217D01*
X008008Y009276D02*
X008087Y009276D01*
X008087Y009334D02*
X008008Y009334D01*
X007939Y009568D02*
X000642Y009568D01*
X000642Y009510D02*
X000957Y009510D01*
X000900Y009451D02*
X000642Y009451D01*
X000642Y009393D02*
X000900Y009393D01*
X000900Y009334D02*
X000642Y009334D01*
X000642Y009276D02*
X000900Y009276D01*
X000900Y009217D02*
X000642Y009217D01*
X000642Y009159D02*
X000900Y009159D01*
X000900Y009100D02*
X000642Y009100D01*
X000642Y009042D02*
X000900Y009042D01*
X000900Y008983D02*
X000642Y008983D01*
X000642Y008925D02*
X000900Y008925D01*
X000908Y008866D02*
X000642Y008866D01*
X000642Y008808D02*
X000966Y008808D01*
X000964Y008691D02*
X000642Y008691D01*
X000642Y008749D02*
X002864Y008749D01*
X002864Y008691D02*
X002844Y008691D01*
X002842Y008808D02*
X002919Y008808D01*
X002901Y008866D02*
X003458Y008866D01*
X003464Y008808D02*
X003516Y008808D01*
X003520Y008749D02*
X004207Y008749D01*
X004207Y008691D02*
X004119Y008691D01*
X004178Y008632D02*
X004207Y008632D01*
X004207Y008574D02*
X004183Y008574D01*
X004183Y008515D02*
X004207Y008515D01*
X004207Y008457D02*
X004183Y008457D01*
X004183Y008398D02*
X004207Y008398D01*
X004207Y008340D02*
X004183Y008340D01*
X004183Y008281D02*
X004207Y008281D01*
X004207Y008223D02*
X004183Y008223D01*
X004183Y008164D02*
X004207Y008164D01*
X004207Y008106D02*
X004183Y008106D01*
X004187Y007989D02*
X004207Y007989D01*
X004627Y007930D02*
X004666Y007930D01*
X004666Y007872D02*
X004627Y007872D01*
X004627Y007813D02*
X004666Y007813D01*
X004666Y007755D02*
X004627Y007755D01*
X004627Y007696D02*
X004666Y007696D01*
X004666Y007638D02*
X004627Y007638D01*
X004627Y007579D02*
X004666Y007579D01*
X004666Y007521D02*
X004627Y007521D01*
X004627Y007462D02*
X004666Y007462D01*
X004666Y007404D02*
X004627Y007404D01*
X004627Y007345D02*
X004666Y007345D01*
X004694Y007287D02*
X004627Y007287D01*
X004627Y007228D02*
X004709Y007228D01*
X004666Y007170D02*
X004627Y007170D01*
X004627Y007111D02*
X004666Y007111D01*
X004666Y007053D02*
X004627Y007053D01*
X004627Y006994D02*
X004666Y006994D01*
X004666Y006936D02*
X004627Y006936D01*
X004627Y006877D02*
X004666Y006877D01*
X004666Y006819D02*
X004627Y006819D01*
X004627Y006760D02*
X004666Y006760D01*
X004666Y006702D02*
X004627Y006702D01*
X004627Y006643D02*
X004666Y006643D01*
X004666Y006585D02*
X004627Y006585D01*
X005453Y007250D02*
X005517Y007314D01*
X005517Y007934D01*
X005441Y008010D01*
X005421Y008010D01*
X005458Y008047D01*
X005458Y008106D02*
X006000Y008106D01*
X006000Y008164D02*
X005458Y008164D01*
X005458Y008223D02*
X006000Y008223D01*
X006000Y008281D02*
X005458Y008281D01*
X005458Y008340D02*
X006000Y008340D01*
X006000Y008398D02*
X005458Y008398D01*
X005458Y008457D02*
X006000Y008457D01*
X006000Y008515D02*
X005458Y008515D01*
X005458Y008574D02*
X006000Y008574D01*
X006006Y008632D02*
X005453Y008632D01*
X005394Y008691D02*
X006064Y008691D01*
X006080Y008806D02*
X006113Y008797D01*
X006337Y008797D01*
X006337Y009133D01*
X006000Y009133D01*
X006000Y008910D01*
X006009Y008877D01*
X006026Y008847D01*
X006051Y008823D01*
X006080Y008806D01*
X006078Y008808D02*
X005392Y008808D01*
X005451Y008866D02*
X006016Y008866D01*
X006000Y008925D02*
X005458Y008925D01*
X005458Y008983D02*
X006000Y008983D01*
X006000Y009042D02*
X005458Y009042D01*
X005458Y009100D02*
X006000Y009100D01*
X006000Y009217D02*
X005458Y009217D01*
X005458Y009159D02*
X006337Y009159D01*
X006337Y009100D02*
X006397Y009100D01*
X006397Y009042D02*
X006337Y009042D01*
X006337Y008983D02*
X006397Y008983D01*
X006397Y008925D02*
X006337Y008925D01*
X006337Y008866D02*
X006397Y008866D01*
X006397Y008808D02*
X006337Y008808D01*
X006000Y009276D02*
X005458Y009276D01*
X005458Y009334D02*
X006000Y009334D01*
X006000Y009393D02*
X005458Y009393D01*
X005458Y009451D02*
X006010Y009451D01*
X006061Y009510D02*
X005402Y009510D01*
X004782Y009510D02*
X004127Y009510D01*
X004183Y009451D02*
X004725Y009451D01*
X004725Y009393D02*
X004183Y009393D01*
X004183Y008925D02*
X004207Y008925D01*
X004207Y008866D02*
X004176Y008866D01*
X004207Y008808D02*
X004117Y008808D01*
X004627Y008808D02*
X004791Y008808D01*
X004733Y008866D02*
X004627Y008866D01*
X004627Y008925D02*
X004725Y008925D01*
X004627Y008749D02*
X006961Y008749D01*
X007612Y009276D02*
X007672Y009276D01*
X007672Y009334D02*
X007612Y009334D01*
X007612Y009393D02*
X007672Y009393D01*
X007672Y009451D02*
X007612Y009451D01*
X007612Y009510D02*
X007672Y009510D01*
X007939Y009627D02*
X000642Y009627D01*
X000642Y009685D02*
X007939Y009685D01*
X007939Y009744D02*
X000642Y009744D01*
X000642Y009802D02*
X007939Y009802D01*
X007939Y009861D02*
X007657Y009861D01*
X007695Y009919D02*
X007939Y009919D01*
X008447Y009334D02*
X008550Y009334D01*
X008550Y009276D02*
X008447Y009276D01*
X008447Y009217D02*
X008550Y009217D01*
X008550Y009133D02*
X008550Y008910D01*
X008559Y008877D01*
X008576Y008847D01*
X008601Y008823D01*
X008630Y008806D01*
X008663Y008797D01*
X008887Y008797D01*
X008887Y009133D01*
X008550Y009133D01*
X008550Y009100D02*
X008447Y009100D01*
X008447Y009042D02*
X008550Y009042D01*
X008550Y008983D02*
X008447Y008983D01*
X008447Y008925D02*
X008550Y008925D01*
X008566Y008866D02*
X008447Y008866D01*
X008404Y008808D02*
X008628Y008808D01*
X008627Y008703D02*
X008550Y008627D01*
X008556Y008632D02*
X008228Y008632D01*
X008287Y008691D02*
X008614Y008691D01*
X008627Y008703D02*
X009207Y008703D01*
X009283Y008627D01*
X009283Y008047D01*
X009825Y008047D01*
X009862Y008010D01*
X009843Y008010D01*
X009766Y007934D01*
X009766Y007314D01*
X009831Y007250D01*
X009766Y007186D01*
X009766Y006670D01*
X009342Y006670D01*
X009342Y007186D01*
X009278Y007250D01*
X009342Y007314D01*
X009342Y007934D01*
X009266Y008010D01*
X009246Y008010D01*
X009283Y008047D01*
X009283Y008106D02*
X009825Y008106D01*
X009825Y008164D02*
X009283Y008164D01*
X009283Y008223D02*
X009825Y008223D01*
X009825Y008281D02*
X009283Y008281D01*
X009283Y008340D02*
X009825Y008340D01*
X009825Y008398D02*
X009283Y008398D01*
X009283Y008457D02*
X009825Y008457D01*
X009825Y008515D02*
X009283Y008515D01*
X009283Y008574D02*
X009825Y008574D01*
X009825Y008627D02*
X009825Y008047D01*
X009821Y007989D02*
X009287Y007989D01*
X009342Y007930D02*
X009766Y007930D01*
X009766Y007872D02*
X009342Y007872D01*
X009342Y007813D02*
X009766Y007813D01*
X009766Y007755D02*
X009342Y007755D01*
X009342Y007696D02*
X009766Y007696D01*
X009766Y007638D02*
X009342Y007638D01*
X009342Y007579D02*
X009766Y007579D01*
X009766Y007521D02*
X009342Y007521D01*
X009342Y007462D02*
X009766Y007462D01*
X009766Y007404D02*
X009342Y007404D01*
X009342Y007345D02*
X009766Y007345D01*
X009794Y007287D02*
X009314Y007287D01*
X009300Y007228D02*
X009809Y007228D01*
X009766Y007170D02*
X009342Y007170D01*
X009342Y007111D02*
X009766Y007111D01*
X009766Y007053D02*
X009342Y007053D01*
X009342Y006994D02*
X009766Y006994D01*
X009766Y006936D02*
X009342Y006936D01*
X009342Y006877D02*
X009766Y006877D01*
X009766Y006819D02*
X009342Y006819D01*
X009342Y006760D02*
X009766Y006760D01*
X009766Y006702D02*
X009342Y006702D01*
X010558Y008047D02*
X010558Y008627D01*
X010482Y008703D01*
X009902Y008703D01*
X009825Y008627D01*
X009831Y008632D02*
X009278Y008632D01*
X009219Y008691D02*
X009889Y008691D01*
X009905Y008806D02*
X009938Y008797D01*
X010162Y008797D01*
X010162Y009133D01*
X010222Y009133D01*
X010222Y009193D01*
X010558Y009193D01*
X010558Y009417D01*
X010549Y009450D01*
X010532Y009479D01*
X010508Y009504D01*
X010478Y009521D01*
X010445Y009530D01*
X010222Y009530D01*
X010222Y009193D01*
X010162Y009193D01*
X010162Y009133D01*
X009825Y009133D01*
X009825Y008910D01*
X009834Y008877D01*
X009851Y008847D01*
X009876Y008823D01*
X009905Y008806D01*
X009903Y008808D02*
X009206Y008808D01*
X009203Y008806D02*
X009233Y008823D01*
X009257Y008847D01*
X009274Y008877D01*
X009283Y008910D01*
X009283Y009133D01*
X008947Y009133D01*
X008947Y008797D01*
X009170Y008797D01*
X009203Y008806D01*
X009268Y008866D02*
X009841Y008866D01*
X009825Y008925D02*
X009283Y008925D01*
X009283Y008983D02*
X009825Y008983D01*
X009825Y009042D02*
X009283Y009042D01*
X009283Y009100D02*
X009825Y009100D01*
X009825Y009193D02*
X010162Y009193D01*
X010162Y009530D01*
X009938Y009530D01*
X009905Y009521D01*
X009876Y009504D01*
X009851Y009479D01*
X009834Y009450D01*
X009825Y009417D01*
X009825Y009193D01*
X009825Y009217D02*
X009283Y009217D01*
X009283Y009276D02*
X009825Y009276D01*
X009825Y009334D02*
X009283Y009334D01*
X009283Y009393D02*
X009825Y009393D01*
X009835Y009451D02*
X009273Y009451D01*
X009222Y009510D02*
X009886Y009510D01*
X010162Y009510D02*
X010222Y009510D01*
X010222Y009451D02*
X010162Y009451D01*
X010162Y009393D02*
X010222Y009393D01*
X010222Y009334D02*
X010162Y009334D01*
X010162Y009276D02*
X010222Y009276D01*
X010222Y009217D02*
X010162Y009217D01*
X010162Y009159D02*
X008947Y009159D01*
X008947Y009217D02*
X008887Y009217D01*
X008887Y009159D02*
X008447Y009159D01*
X008539Y009393D02*
X008550Y009393D01*
X008595Y009510D02*
X008611Y009510D01*
X008595Y009568D02*
X011420Y009568D01*
X011378Y009510D02*
X010497Y009510D01*
X010548Y009451D02*
X011378Y009451D01*
X011378Y009393D02*
X010558Y009393D01*
X010558Y009334D02*
X011378Y009334D01*
X011378Y009276D02*
X010558Y009276D01*
X010558Y009217D02*
X011378Y009217D01*
X011370Y009159D02*
X010222Y009159D01*
X010222Y009133D02*
X010558Y009133D01*
X010558Y008910D01*
X010549Y008877D01*
X010532Y008847D01*
X010508Y008823D01*
X010478Y008806D01*
X010445Y008797D01*
X010222Y008797D01*
X010222Y009133D01*
X010222Y009100D02*
X010162Y009100D01*
X010162Y009042D02*
X010222Y009042D01*
X010222Y008983D02*
X010162Y008983D01*
X010162Y008925D02*
X010222Y008925D01*
X010222Y008866D02*
X010162Y008866D01*
X010162Y008808D02*
X010222Y008808D01*
X010481Y008808D02*
X011232Y008808D01*
X011232Y008866D02*
X010543Y008866D01*
X010558Y008925D02*
X011232Y008925D01*
X011232Y008983D02*
X010558Y008983D01*
X010558Y009042D02*
X011253Y009042D01*
X011312Y009100D02*
X010558Y009100D01*
X010494Y008691D02*
X011232Y008691D01*
X011232Y008749D02*
X008345Y008749D01*
X008070Y008983D02*
X008008Y008983D01*
X008008Y009042D02*
X008087Y009042D01*
X008087Y009100D02*
X008008Y009100D01*
X008595Y009627D02*
X012244Y009627D01*
X012244Y009685D02*
X008595Y009685D01*
X008595Y009744D02*
X012244Y009744D01*
X012244Y009802D02*
X008595Y009802D01*
X008595Y009861D02*
X012244Y009861D01*
X012263Y009919D02*
X008595Y009919D01*
X008887Y009510D02*
X008947Y009510D01*
X008947Y009451D02*
X008887Y009451D01*
X008887Y009393D02*
X008947Y009393D01*
X008947Y009334D02*
X008887Y009334D01*
X008887Y009276D02*
X008947Y009276D01*
X008947Y009100D02*
X008887Y009100D01*
X008887Y009042D02*
X008947Y009042D01*
X008947Y008983D02*
X008887Y008983D01*
X008887Y008925D02*
X008947Y008925D01*
X008947Y008866D02*
X008887Y008866D01*
X008887Y008808D02*
X008947Y008808D01*
X010553Y008632D02*
X011232Y008632D01*
X011232Y008574D02*
X010558Y008574D01*
X010558Y008515D02*
X011232Y008515D01*
X011232Y008457D02*
X010558Y008457D01*
X010558Y008398D02*
X011232Y008398D01*
X011232Y008340D02*
X010558Y008340D01*
X010558Y008281D02*
X011232Y008281D01*
X011232Y008223D02*
X010558Y008223D01*
X010558Y008164D02*
X011232Y008164D01*
X011063Y008106D02*
X010558Y008106D01*
X011652Y008164D02*
X012118Y008164D01*
X012118Y008223D02*
X011652Y008223D01*
X011652Y008281D02*
X012127Y008281D01*
X012151Y008340D02*
X011652Y008340D01*
X011652Y008398D02*
X012189Y008398D01*
X012248Y008457D02*
X011652Y008457D01*
X011652Y008515D02*
X013142Y008515D01*
X013142Y008457D02*
X012603Y008457D01*
X012662Y008398D02*
X013142Y008398D01*
X013142Y008340D02*
X012700Y008340D01*
X012724Y008281D02*
X013142Y008281D01*
X013142Y008223D02*
X012733Y008223D01*
X012733Y008164D02*
X013142Y008164D01*
X012948Y008106D02*
X012719Y008106D01*
X012695Y008047D02*
X012926Y008047D01*
X012926Y007989D02*
X012648Y007989D01*
X012595Y007930D02*
X012725Y007930D01*
X012666Y007872D02*
X012595Y007872D01*
X012595Y007813D02*
X012608Y007813D01*
X012156Y008047D02*
X011867Y008047D01*
X011867Y007989D02*
X011975Y007989D01*
X011820Y008106D02*
X012132Y008106D01*
X012324Y008583D02*
X012357Y008574D01*
X012620Y008574D01*
X012620Y008871D01*
X012680Y008871D01*
X012680Y008931D01*
X013055Y008931D01*
X013055Y009115D01*
X013046Y009148D01*
X013029Y009178D01*
X013005Y009202D01*
X012976Y009219D01*
X012942Y009228D01*
X012680Y009228D01*
X012680Y008931D01*
X012620Y008931D01*
X012620Y009228D01*
X012357Y009228D01*
X012324Y009219D01*
X012294Y009202D01*
X012270Y009178D01*
X012253Y009148D01*
X012244Y009115D01*
X012244Y008931D01*
X012620Y008931D01*
X012620Y008871D01*
X012244Y008871D01*
X012244Y008687D01*
X012253Y008654D01*
X012270Y008624D01*
X012294Y008600D01*
X012324Y008583D01*
X012266Y008632D02*
X011652Y008632D01*
X011652Y008574D02*
X013142Y008574D01*
X013200Y008632D02*
X013034Y008632D01*
X013029Y008624D02*
X013046Y008654D01*
X013055Y008687D01*
X013055Y008871D01*
X012680Y008871D01*
X012680Y008574D01*
X012942Y008574D01*
X012976Y008583D01*
X013005Y008600D01*
X013029Y008624D01*
X013055Y008691D02*
X013258Y008691D01*
X013317Y008749D02*
X013055Y008749D01*
X013055Y008808D02*
X013375Y008808D01*
X013434Y008866D02*
X013055Y008866D01*
X013055Y008983D02*
X013551Y008983D01*
X013609Y009042D02*
X013055Y009042D01*
X013055Y009100D02*
X013668Y009100D01*
X013661Y009159D02*
X013040Y009159D01*
X012979Y009217D02*
X013603Y009217D01*
X013544Y009276D02*
X012189Y009276D01*
X012189Y009334D02*
X012308Y009334D01*
X012250Y009393D02*
X012189Y009393D01*
X012189Y009451D02*
X012244Y009451D01*
X012244Y009510D02*
X012189Y009510D01*
X012147Y009568D02*
X012244Y009568D01*
X012189Y009217D02*
X012321Y009217D01*
X012259Y009159D02*
X012189Y009159D01*
X012189Y009100D02*
X012244Y009100D01*
X012244Y009042D02*
X012189Y009042D01*
X012148Y008983D02*
X012244Y008983D01*
X012244Y008866D02*
X011672Y008866D01*
X011652Y008808D02*
X012244Y008808D01*
X012244Y008749D02*
X011652Y008749D01*
X011652Y008691D02*
X012244Y008691D01*
X012620Y008691D02*
X012680Y008691D01*
X012680Y008749D02*
X012620Y008749D01*
X012620Y008808D02*
X012680Y008808D01*
X012680Y008866D02*
X012620Y008866D01*
X012620Y008925D02*
X011730Y008925D01*
X012620Y008983D02*
X012680Y008983D01*
X012680Y008925D02*
X013492Y008925D01*
X013794Y008632D02*
X014329Y008632D01*
X014310Y008691D02*
X013852Y008691D01*
X013911Y008749D02*
X014310Y008749D01*
X014310Y008808D02*
X013969Y008808D01*
X014028Y008866D02*
X014310Y008866D01*
X014219Y008507D02*
X014097Y008507D01*
X013984Y008460D01*
X013897Y008374D01*
X013851Y008261D01*
X013851Y008139D01*
X013897Y008026D01*
X013984Y007940D01*
X014097Y007893D01*
X014219Y007893D01*
X014332Y007940D01*
X014418Y008026D01*
X014465Y008139D01*
X014465Y008261D01*
X014418Y008374D01*
X014332Y008460D01*
X014219Y008507D01*
X014336Y008457D02*
X016277Y008457D01*
X016277Y008515D02*
X013677Y008515D01*
X013735Y008574D02*
X016277Y008574D01*
X016277Y008398D02*
X014394Y008398D01*
X014432Y008340D02*
X016277Y008340D01*
X016277Y008281D02*
X014457Y008281D01*
X014465Y008223D02*
X016277Y008223D01*
X016277Y008164D02*
X014465Y008164D01*
X014451Y008106D02*
X016277Y008106D01*
X016277Y008047D02*
X014427Y008047D01*
X014381Y007989D02*
X016277Y007989D01*
X016277Y007930D02*
X014309Y007930D01*
X014007Y007930D02*
X013777Y007930D01*
X013777Y007872D02*
X016277Y007872D01*
X016277Y007813D02*
X013777Y007813D01*
X013777Y007755D02*
X016277Y007755D01*
X016277Y007696D02*
X013777Y007696D01*
X013777Y007638D02*
X016277Y007638D01*
X016277Y007579D02*
X013777Y007579D01*
X013777Y007521D02*
X016277Y007521D01*
X016277Y007462D02*
X013775Y007462D01*
X013716Y007404D02*
X016277Y007404D01*
X016277Y007345D02*
X013761Y007345D01*
X013777Y007287D02*
X016277Y007287D01*
X016277Y007228D02*
X013777Y007228D01*
X013777Y007170D02*
X016277Y007170D01*
X016140Y005707D02*
X015063Y005707D01*
X015121Y005649D02*
X016082Y005649D01*
X016082Y005590D02*
X015121Y005590D01*
X015121Y005532D02*
X016082Y005532D01*
X016082Y005473D02*
X015121Y005473D01*
X015121Y005415D02*
X016082Y005415D01*
X016082Y005356D02*
X015121Y005356D01*
X015121Y005298D02*
X016082Y005298D01*
X016082Y005239D02*
X015121Y005239D01*
X015121Y005181D02*
X016082Y005181D01*
X016082Y005122D02*
X015121Y005122D01*
X015121Y005064D02*
X016082Y005064D01*
X016082Y005005D02*
X015121Y005005D01*
X015121Y004947D02*
X016082Y004947D01*
X016082Y004888D02*
X015121Y004888D01*
X015121Y004830D02*
X016082Y004830D01*
X016082Y004771D02*
X015121Y004771D01*
X015120Y004713D02*
X016084Y004713D01*
X016142Y004654D02*
X015192Y004654D01*
X015251Y004596D02*
X016892Y004596D01*
X016892Y004654D02*
X016833Y004654D01*
X016891Y004713D02*
X016892Y004713D01*
X016892Y004537D02*
X015309Y004537D01*
X015346Y004479D02*
X016892Y004479D01*
X016892Y004420D02*
X015481Y004420D01*
X015539Y004362D02*
X016892Y004362D01*
X016892Y004303D02*
X015552Y004303D01*
X015552Y004245D02*
X016892Y004245D01*
X016892Y004186D02*
X015552Y004186D01*
X015552Y004128D02*
X016892Y004128D01*
X016892Y004069D02*
X015552Y004069D01*
X015552Y004011D02*
X016892Y004011D01*
X016892Y003952D02*
X015552Y003952D01*
X015552Y003894D02*
X016892Y003894D01*
X016892Y003835D02*
X015552Y003835D01*
X015552Y003777D02*
X016892Y003777D01*
X016892Y003718D02*
X015552Y003718D01*
X015552Y003660D02*
X016892Y003660D01*
X016892Y003601D02*
X015502Y003601D01*
X015374Y003543D02*
X016892Y003543D01*
X016892Y003484D02*
X015374Y003484D01*
X015374Y003426D02*
X016892Y003426D01*
X016892Y003367D02*
X015374Y003367D01*
X015374Y003309D02*
X016892Y003309D01*
X016892Y003250D02*
X015374Y003250D01*
X015374Y003192D02*
X016892Y003192D01*
X016892Y003133D02*
X015374Y003133D01*
X015355Y003075D02*
X016892Y003075D01*
X016892Y003016D02*
X015275Y003016D01*
X015185Y003016D02*
X015185Y003016D01*
X015185Y003075D02*
X015185Y003075D01*
X015185Y003133D02*
X015185Y003133D01*
X015185Y003192D02*
X015185Y003192D01*
X015185Y003250D02*
X015185Y003250D01*
X015185Y003309D02*
X015185Y003309D01*
X015089Y002958D02*
X016892Y002958D01*
X016892Y002899D02*
X015147Y002899D01*
X015169Y002841D02*
X016892Y002841D01*
X016892Y002782D02*
X015169Y002782D01*
X015169Y002724D02*
X016892Y002724D01*
X016892Y002665D02*
X015169Y002665D01*
X015303Y002607D02*
X016892Y002607D01*
X016892Y002548D02*
X015361Y002548D01*
X015374Y002490D02*
X016892Y002490D01*
X016892Y002431D02*
X015374Y002431D01*
X015374Y002373D02*
X016892Y002373D01*
X016892Y002314D02*
X015374Y002314D01*
X015374Y002256D02*
X016892Y002256D01*
X016892Y002197D02*
X015374Y002197D01*
X015374Y002139D02*
X016892Y002139D01*
X016892Y002080D02*
X015374Y002080D01*
X015362Y002022D02*
X016892Y002022D01*
X016892Y001963D02*
X015304Y001963D01*
X015172Y001905D02*
X016892Y001905D01*
X016892Y001846D02*
X015172Y001846D01*
X015172Y001788D02*
X016892Y001788D01*
X016892Y001729D02*
X015172Y001729D01*
X015172Y001671D02*
X016892Y001671D01*
X016892Y001612D02*
X015172Y001612D01*
X015172Y001574D02*
X015172Y001574D01*
X015172Y001554D02*
X016892Y001554D01*
X016892Y001495D02*
X015172Y001495D01*
X015172Y001437D02*
X016892Y001437D01*
X016892Y001378D02*
X015124Y001378D01*
X015066Y001320D02*
X015066Y001320D01*
X015065Y001320D02*
X016892Y001320D01*
X016892Y001261D02*
X015006Y001261D01*
X014952Y001203D02*
X016892Y001203D01*
X016892Y001144D02*
X014952Y001144D01*
X014952Y001086D02*
X016892Y001086D01*
X016892Y001027D02*
X014952Y001027D01*
X014952Y000969D02*
X016892Y000969D01*
X016892Y000910D02*
X014911Y000910D01*
X014221Y000910D02*
X014163Y000910D01*
X013848Y000910D02*
X013788Y000910D01*
X013788Y000875D02*
X013788Y001270D01*
X013432Y001270D01*
X013432Y000988D01*
X013441Y000955D01*
X013458Y000925D01*
X013482Y000901D01*
X013512Y000884D01*
X013545Y000875D01*
X013788Y000875D01*
X013788Y000969D02*
X013848Y000969D01*
X013848Y001027D02*
X013788Y001027D01*
X013788Y001086D02*
X013848Y001086D01*
X013848Y001144D02*
X013788Y001144D01*
X013788Y001203D02*
X013848Y001203D01*
X013848Y001261D02*
X013788Y001261D01*
X013788Y001320D02*
X010766Y001320D01*
X010824Y001378D02*
X013432Y001378D01*
X013432Y001437D02*
X010883Y001437D01*
X010941Y001495D02*
X011630Y001495D01*
X011502Y001554D02*
X011000Y001554D01*
X011058Y001612D02*
X011443Y001612D01*
X011394Y001671D02*
X011117Y001671D01*
X011226Y002080D02*
X011394Y002080D01*
X011444Y002139D02*
X011285Y002139D01*
X011343Y002197D02*
X011502Y002197D01*
X011402Y002256D02*
X011631Y002256D01*
X011519Y002373D02*
X012965Y002373D01*
X012906Y002431D02*
X011577Y002431D01*
X011636Y002490D02*
X011643Y002490D01*
X011460Y002314D02*
X013023Y002314D01*
X013082Y002256D02*
X012352Y002256D01*
X012481Y002197D02*
X013140Y002197D01*
X013199Y002139D02*
X012540Y002139D01*
X012589Y002080D02*
X013257Y002080D01*
X013316Y002022D02*
X012613Y002022D01*
X012637Y001963D02*
X013374Y001963D01*
X013433Y001905D02*
X012642Y001905D01*
X012642Y001846D02*
X013491Y001846D01*
X013550Y001788D02*
X012638Y001788D01*
X012613Y001729D02*
X014812Y001729D01*
X014812Y001788D02*
X014634Y001788D01*
X014692Y001846D02*
X014812Y001846D01*
X014812Y001905D02*
X014751Y001905D01*
X014792Y001963D02*
X014792Y001963D01*
X014792Y002022D02*
X014792Y002022D01*
X014792Y002080D02*
X014792Y002080D01*
X014792Y002139D02*
X014792Y002139D01*
X014792Y002197D02*
X014792Y002197D01*
X014792Y002256D02*
X014792Y002256D01*
X014792Y002314D02*
X014792Y002314D01*
X014792Y002373D02*
X014792Y002373D01*
X014792Y002431D02*
X014792Y002431D01*
X014792Y002490D02*
X014792Y002490D01*
X014792Y002548D02*
X014792Y002548D01*
X014792Y002607D02*
X014792Y002607D01*
X014809Y002665D02*
X014572Y002665D01*
X014523Y002724D02*
X014809Y002724D01*
X014755Y002782D02*
X014464Y002782D01*
X014406Y002841D02*
X014697Y002841D01*
X014638Y002899D02*
X013950Y002899D01*
X013967Y002958D02*
X014612Y002958D01*
X014595Y003013D02*
X014595Y003339D01*
X014595Y003339D01*
X014595Y003013D01*
X014595Y003016D02*
X014595Y003016D01*
X014595Y003075D02*
X014595Y003075D01*
X014595Y003133D02*
X014595Y003133D01*
X014595Y003192D02*
X014595Y003192D01*
X014595Y003250D02*
X014595Y003250D01*
X014595Y003309D02*
X014595Y003309D01*
X014282Y003016D02*
X013967Y003016D01*
X013967Y003075D02*
X014223Y003075D01*
X014209Y003133D02*
X013967Y003133D01*
X013967Y003192D02*
X014209Y003192D01*
X014209Y003250D02*
X013967Y003250D01*
X013967Y003309D02*
X014209Y003309D01*
X014209Y003367D02*
X013967Y003367D01*
X013967Y003426D02*
X014209Y003426D01*
X014209Y003484D02*
X013967Y003484D01*
X013960Y003543D02*
X014209Y003543D01*
X014082Y003601D02*
X013904Y003601D01*
X013962Y003660D02*
X014039Y003660D01*
X014032Y003718D02*
X013967Y003718D01*
X013967Y003777D02*
X014032Y003777D01*
X014032Y003835D02*
X013967Y003835D01*
X013967Y003894D02*
X014032Y003894D01*
X014032Y003952D02*
X013967Y003952D01*
X013816Y004420D02*
X014125Y004420D01*
X012662Y003894D02*
X012642Y003894D01*
X012642Y003835D02*
X012662Y003835D01*
X012662Y003777D02*
X012633Y003777D01*
X012609Y003718D02*
X012662Y003718D01*
X012662Y003660D02*
X012585Y003660D01*
X012529Y003601D02*
X012662Y003601D01*
X012662Y003543D02*
X012468Y003543D01*
X012662Y003484D02*
X011280Y003484D01*
X011272Y003426D02*
X012662Y003426D01*
X012662Y003367D02*
X011272Y003367D01*
X011272Y003309D02*
X012662Y003309D01*
X012662Y003250D02*
X012365Y003250D01*
X012487Y003192D02*
X012662Y003192D01*
X012662Y003133D02*
X012545Y003133D01*
X012591Y003075D02*
X012662Y003075D01*
X012662Y003016D02*
X012615Y003016D01*
X012640Y002958D02*
X012662Y002958D01*
X012662Y002899D02*
X012642Y002899D01*
X012642Y002841D02*
X012662Y002841D01*
X012662Y002782D02*
X012635Y002782D01*
X012611Y002724D02*
X012662Y002724D01*
X012672Y002665D02*
X012587Y002665D01*
X012535Y002607D02*
X012731Y002607D01*
X012789Y002548D02*
X012476Y002548D01*
X012340Y002490D02*
X012848Y002490D01*
X013788Y001671D02*
X013848Y001671D01*
X013848Y001612D02*
X013788Y001612D01*
X013788Y001554D02*
X013848Y001554D01*
X013848Y001495D02*
X013788Y001495D01*
X013788Y001437D02*
X013848Y001437D01*
X013848Y001378D02*
X013788Y001378D01*
X013432Y001261D02*
X012310Y001261D01*
X012290Y001265D02*
X012022Y001265D01*
X012022Y000905D01*
X012642Y000905D01*
X012642Y000913D01*
X012627Y000989D01*
X012597Y001060D01*
X012555Y001124D01*
X012500Y001178D01*
X012436Y001221D01*
X012365Y001250D01*
X012290Y001265D01*
X012464Y001203D02*
X013432Y001203D01*
X013432Y001144D02*
X012534Y001144D01*
X012580Y001086D02*
X013432Y001086D01*
X013432Y001027D02*
X012611Y001027D01*
X012631Y000969D02*
X013437Y000969D01*
X013473Y000910D02*
X012642Y000910D01*
X012642Y000845D02*
X012022Y000845D01*
X012022Y000905D01*
X011962Y000905D01*
X011962Y001265D01*
X011693Y001265D01*
X011618Y001250D01*
X011547Y001221D01*
X011483Y001178D01*
X011429Y001124D01*
X011386Y001060D01*
X011357Y000989D01*
X011342Y000913D01*
X011342Y000905D01*
X011962Y000905D01*
X011962Y000845D01*
X012022Y000845D01*
X012022Y000485D01*
X012290Y000485D01*
X012365Y000500D01*
X012436Y000529D01*
X012500Y000572D01*
X012555Y000626D01*
X012597Y000690D01*
X012627Y000761D01*
X012642Y000837D01*
X012642Y000845D01*
X012633Y000793D02*
X016892Y000793D01*
X016892Y000735D02*
X012616Y000735D01*
X012588Y000676D02*
X016892Y000676D01*
X016892Y000618D02*
X012546Y000618D01*
X012481Y000559D02*
X016892Y000559D01*
X016892Y000501D02*
X012367Y000501D01*
X012022Y000501D02*
X011962Y000501D01*
X011962Y000485D02*
X011962Y000845D01*
X011342Y000845D01*
X011342Y000837D01*
X011357Y000761D01*
X011386Y000690D01*
X011429Y000626D01*
X011483Y000572D01*
X011547Y000529D01*
X011618Y000500D01*
X011693Y000485D01*
X011962Y000485D01*
X011962Y000559D02*
X012022Y000559D01*
X012022Y000618D02*
X011962Y000618D01*
X011962Y000676D02*
X012022Y000676D01*
X012022Y000735D02*
X011962Y000735D01*
X011962Y000793D02*
X012022Y000793D01*
X012022Y000852D02*
X016892Y000852D01*
X014201Y001671D02*
X014180Y001671D01*
X013432Y001554D02*
X012482Y001554D01*
X012353Y001495D02*
X013432Y001495D01*
X012022Y001261D02*
X011962Y001261D01*
X011962Y001203D02*
X012022Y001203D01*
X012022Y001144D02*
X011962Y001144D01*
X011962Y001086D02*
X012022Y001086D01*
X012022Y001027D02*
X011962Y001027D01*
X011962Y000969D02*
X012022Y000969D01*
X012022Y000910D02*
X011962Y000910D01*
X011962Y000852D02*
X006848Y000852D01*
X006906Y000910D02*
X011342Y000910D01*
X011353Y000969D02*
X006965Y000969D01*
X007023Y001027D02*
X008110Y001027D01*
X008052Y001086D02*
X007049Y001086D01*
X007049Y001144D02*
X007993Y001144D01*
X007949Y001203D02*
X007049Y001203D01*
X007049Y001261D02*
X007949Y001261D01*
X007949Y001320D02*
X007049Y001320D01*
X007049Y001378D02*
X007949Y001378D01*
X008684Y001554D02*
X010191Y001554D01*
X010249Y001612D02*
X008684Y001612D01*
X008684Y001671D02*
X010308Y001671D01*
X010366Y001729D02*
X008684Y001729D01*
X008684Y001788D02*
X010425Y001788D01*
X010483Y001846D02*
X008684Y001846D01*
X008684Y001905D02*
X010542Y001905D01*
X010600Y001963D02*
X008684Y001963D01*
X008684Y002022D02*
X009366Y002022D01*
X009307Y002080D02*
X008668Y002080D01*
X008697Y002139D02*
X008609Y002139D01*
X008652Y002197D02*
X006032Y002197D01*
X006032Y002256D02*
X008652Y002256D01*
X008652Y002314D02*
X006032Y002314D01*
X006032Y002373D02*
X008039Y002373D01*
X008014Y002431D02*
X006032Y002431D01*
X006032Y002490D02*
X008014Y002490D01*
X008014Y002548D02*
X006032Y002548D01*
X006032Y002607D02*
X008014Y002607D01*
X008014Y002665D02*
X006032Y002665D01*
X006032Y002724D02*
X007971Y002724D01*
X008273Y003016D02*
X008652Y003016D01*
X008652Y002958D02*
X008614Y002958D01*
X008652Y003075D02*
X008214Y003075D01*
X008156Y003133D02*
X008652Y003133D01*
X009412Y003133D02*
X009421Y003133D01*
X009412Y003192D02*
X009416Y003192D01*
X009412Y003250D02*
X009416Y003250D01*
X009412Y003309D02*
X009416Y003309D01*
X009412Y003367D02*
X009416Y003367D01*
X009412Y003660D02*
X009416Y003660D01*
X009412Y003718D02*
X009422Y003718D01*
X009412Y003075D02*
X009456Y003075D01*
X009447Y003016D02*
X009412Y003016D01*
X009412Y002958D02*
X009416Y002958D01*
X009412Y002899D02*
X009416Y002899D01*
X008652Y002373D02*
X008644Y002373D01*
X010418Y002022D02*
X010659Y002022D01*
X010717Y002080D02*
X010476Y002080D01*
X010535Y002139D02*
X010776Y002139D01*
X010834Y002197D02*
X010593Y002197D01*
X010652Y002256D02*
X010893Y002256D01*
X010951Y002314D02*
X010710Y002314D01*
X010769Y002373D02*
X011010Y002373D01*
X011068Y002431D02*
X010827Y002431D01*
X010886Y002490D02*
X011127Y002490D01*
X011185Y002548D02*
X010944Y002548D01*
X011003Y002607D02*
X011244Y002607D01*
X011302Y002665D02*
X011061Y002665D01*
X011120Y002724D02*
X011361Y002724D01*
X011348Y002782D02*
X011178Y002782D01*
X011237Y002841D02*
X011342Y002841D01*
X011342Y002899D02*
X011272Y002899D01*
X011272Y002958D02*
X011344Y002958D01*
X011368Y003016D02*
X011272Y003016D01*
X011272Y003075D02*
X011392Y003075D01*
X011438Y003133D02*
X011272Y003133D01*
X011272Y003192D02*
X011497Y003192D01*
X011618Y003250D02*
X011272Y003250D01*
X011339Y003543D02*
X011515Y003543D01*
X011454Y003601D02*
X011397Y003601D01*
X011673Y001261D02*
X010707Y001261D01*
X010649Y001203D02*
X011520Y001203D01*
X011449Y001144D02*
X010590Y001144D01*
X010532Y001086D02*
X011403Y001086D01*
X011372Y001027D02*
X010473Y001027D01*
X011350Y000793D02*
X006789Y000793D01*
X006731Y000735D02*
X011368Y000735D01*
X011396Y000676D02*
X006672Y000676D01*
X006614Y000618D02*
X011438Y000618D01*
X011503Y000559D02*
X006555Y000559D01*
X006497Y000501D02*
X011617Y000501D01*
X008706Y004771D02*
X008619Y004771D01*
X005941Y007030D02*
X005941Y007186D01*
X006006Y007250D01*
X005941Y007314D01*
X005941Y007934D01*
X006018Y008010D01*
X006037Y008010D01*
X006000Y008047D01*
X005996Y007989D02*
X005462Y007989D01*
X005517Y007930D02*
X005941Y007930D01*
X005941Y007872D02*
X005517Y007872D01*
X005517Y007813D02*
X005941Y007813D01*
X005941Y007755D02*
X005517Y007755D01*
X005517Y007696D02*
X005941Y007696D01*
X005941Y007638D02*
X005517Y007638D01*
X005517Y007579D02*
X005941Y007579D01*
X005941Y007521D02*
X005517Y007521D01*
X005517Y007462D02*
X005941Y007462D01*
X005941Y007404D02*
X005517Y007404D01*
X005517Y007345D02*
X005941Y007345D01*
X005969Y007287D02*
X005489Y007287D01*
X005453Y007250D02*
X005517Y007186D01*
X005517Y006630D01*
X005812Y006925D01*
X005917Y007030D01*
X005941Y007030D01*
X005941Y007053D02*
X005517Y007053D01*
X005517Y007111D02*
X005941Y007111D01*
X005941Y007170D02*
X005517Y007170D01*
X005475Y007228D02*
X005984Y007228D01*
X005881Y006994D02*
X005517Y006994D01*
X005517Y006936D02*
X005823Y006936D01*
X005764Y006877D02*
X005517Y006877D01*
X005517Y006819D02*
X005706Y006819D01*
X005647Y006760D02*
X005517Y006760D01*
X005517Y006702D02*
X005589Y006702D01*
X005530Y006643D02*
X005517Y006643D01*
X004762Y008010D02*
X004743Y008010D01*
X004762Y008010D02*
X004725Y008047D01*
X004725Y008106D02*
X004627Y008106D01*
X004627Y008164D02*
X004725Y008164D01*
X004725Y008223D02*
X004627Y008223D01*
X004627Y008281D02*
X004725Y008281D01*
X004725Y008340D02*
X004627Y008340D01*
X004627Y008398D02*
X004725Y008398D01*
X004725Y008457D02*
X004627Y008457D01*
X004627Y008515D02*
X004725Y008515D01*
X004725Y008574D02*
X004627Y008574D01*
X004627Y008632D02*
X004731Y008632D01*
X004789Y008691D02*
X004627Y008691D01*
X003450Y008925D02*
X002908Y008925D01*
X002908Y009393D02*
X003450Y009393D01*
X003450Y009451D02*
X002908Y009451D01*
X002852Y009510D02*
X003507Y009510D01*
X002232Y009510D02*
X001577Y009510D01*
X001633Y009451D02*
X002175Y009451D01*
X002175Y009393D02*
X001633Y009393D01*
X001633Y008925D02*
X002175Y008925D01*
X002183Y008866D02*
X001626Y008866D01*
X001567Y008808D02*
X002241Y008808D01*
X002239Y008691D02*
X001569Y008691D01*
X001628Y008632D02*
X002181Y008632D01*
X002175Y008574D02*
X001633Y008574D01*
X001633Y008515D02*
X002175Y008515D01*
X002175Y008457D02*
X001633Y008457D01*
X001633Y008398D02*
X002175Y008398D01*
X002175Y008340D02*
X001633Y008340D01*
X001633Y008281D02*
X002175Y008281D01*
X002175Y008223D02*
X001633Y008223D01*
X001633Y008164D02*
X002175Y008164D01*
X002175Y008106D02*
X001633Y008106D01*
X001633Y008047D02*
X001596Y008010D01*
X001616Y008010D01*
X001692Y007934D01*
X001692Y007314D01*
X001628Y007250D01*
X001692Y007186D01*
X001692Y006705D01*
X002205Y006193D01*
X002362Y006350D01*
X002362Y006490D01*
X002193Y006490D01*
X002116Y006566D01*
X002116Y007186D01*
X002181Y007250D01*
X002116Y007314D01*
X002116Y007934D01*
X002193Y008010D01*
X002212Y008010D01*
X002175Y008047D01*
X002171Y007989D02*
X001637Y007989D01*
X001692Y007930D02*
X002116Y007930D01*
X002116Y007872D02*
X001692Y007872D01*
X001692Y007813D02*
X002116Y007813D01*
X002116Y007755D02*
X001692Y007755D01*
X001692Y007696D02*
X002116Y007696D01*
X002116Y007638D02*
X001692Y007638D01*
X001692Y007579D02*
X002116Y007579D01*
X002116Y007521D02*
X001692Y007521D01*
X001692Y007462D02*
X002116Y007462D01*
X002116Y007404D02*
X001692Y007404D01*
X001692Y007345D02*
X002116Y007345D01*
X002144Y007287D02*
X001664Y007287D01*
X001650Y007228D02*
X002159Y007228D01*
X002116Y007170D02*
X001692Y007170D01*
X001692Y007111D02*
X002116Y007111D01*
X002116Y007053D02*
X001692Y007053D01*
X001692Y006994D02*
X002116Y006994D01*
X002116Y006936D02*
X001692Y006936D01*
X001692Y006877D02*
X002116Y006877D01*
X002116Y006819D02*
X001692Y006819D01*
X001692Y006760D02*
X002116Y006760D01*
X002116Y006702D02*
X001696Y006702D01*
X001754Y006643D02*
X002116Y006643D01*
X002116Y006585D02*
X001813Y006585D01*
X001871Y006526D02*
X002157Y006526D01*
X001988Y006409D02*
X002362Y006409D01*
X002362Y006351D02*
X002047Y006351D01*
X002105Y006292D02*
X002304Y006292D01*
X002246Y006234D02*
X002164Y006234D01*
X002362Y006468D02*
X001930Y006468D01*
X001655Y006234D02*
X000642Y006234D01*
X000642Y006292D02*
X001596Y006292D01*
X001538Y006351D02*
X000642Y006351D01*
X000642Y006409D02*
X001479Y006409D01*
X001421Y006468D02*
X000642Y006468D01*
X000642Y006526D02*
X000882Y006526D01*
X000841Y006585D02*
X000642Y006585D01*
X000642Y006643D02*
X000841Y006643D01*
X000841Y006702D02*
X000642Y006702D01*
X000642Y006760D02*
X000841Y006760D01*
X000841Y006819D02*
X000642Y006819D01*
X000642Y006877D02*
X000841Y006877D01*
X000841Y006936D02*
X000642Y006936D01*
X000642Y006994D02*
X000841Y006994D01*
X000841Y007053D02*
X000642Y007053D01*
X000642Y007111D02*
X000841Y007111D01*
X000841Y007170D02*
X000642Y007170D01*
X000642Y007228D02*
X000884Y007228D01*
X000869Y007287D02*
X000642Y007287D01*
X000642Y007345D02*
X000841Y007345D01*
X000841Y007404D02*
X000642Y007404D01*
X000642Y007462D02*
X000841Y007462D01*
X000841Y007521D02*
X000642Y007521D01*
X000642Y007579D02*
X000841Y007579D01*
X000841Y007638D02*
X000642Y007638D01*
X000642Y007696D02*
X000841Y007696D01*
X000841Y007755D02*
X000642Y007755D01*
X000642Y007813D02*
X000841Y007813D01*
X000841Y007872D02*
X000642Y007872D01*
X000642Y007930D02*
X000841Y007930D01*
X000918Y008010D02*
X000937Y008010D01*
X000900Y008047D01*
X000900Y008106D02*
X000642Y008106D01*
X000642Y008164D02*
X000900Y008164D01*
X000900Y008223D02*
X000642Y008223D01*
X000642Y008281D02*
X000900Y008281D01*
X000900Y008340D02*
X000642Y008340D01*
X000642Y008398D02*
X000900Y008398D01*
X000900Y008457D02*
X000642Y008457D01*
X000642Y008515D02*
X000900Y008515D01*
X000900Y008574D02*
X000642Y008574D01*
X000642Y008632D02*
X000906Y008632D01*
X000642Y009861D02*
X007076Y009861D01*
X007039Y009919D02*
X000642Y009919D01*
X000642Y009978D02*
X007039Y009978D01*
X007039Y010036D02*
X000642Y010036D01*
X000642Y010095D02*
X007039Y010095D01*
X007039Y010153D02*
X000642Y010153D01*
X000642Y010212D02*
X007039Y010212D01*
X007039Y010270D02*
X000642Y010270D01*
X000642Y010329D02*
X007039Y010329D01*
X007039Y010387D02*
X000642Y010387D01*
X000642Y010446D02*
X007082Y010446D01*
X011412Y006877D02*
X011472Y006877D01*
X011472Y006819D02*
X011412Y006819D01*
X011412Y006760D02*
X011472Y006760D01*
X011472Y006702D02*
X011412Y006702D01*
X011412Y006643D02*
X011472Y006643D01*
X011867Y007053D02*
X012507Y007053D01*
X012507Y007111D02*
X011867Y007111D01*
X011867Y007170D02*
X012507Y007170D01*
X012507Y007228D02*
X011867Y007228D01*
X011864Y007287D02*
X012507Y007287D01*
X012507Y007345D02*
X011833Y007345D01*
X011831Y007404D02*
X011983Y007404D01*
X011939Y007462D02*
X011867Y007462D01*
X011867Y007521D02*
X011939Y007521D01*
X012620Y008632D02*
X012680Y008632D01*
X012680Y009042D02*
X012620Y009042D01*
X012620Y009100D02*
X012680Y009100D01*
X012680Y009159D02*
X012620Y009159D01*
X012620Y009217D02*
X012680Y009217D01*
X012991Y009334D02*
X013486Y009334D01*
X013427Y009393D02*
X013050Y009393D01*
X013055Y009861D02*
X016109Y009861D01*
X016051Y009919D02*
X013036Y009919D01*
X013612Y009802D02*
X016168Y009802D01*
X016226Y009744D02*
X013670Y009744D01*
X013729Y009685D02*
X016277Y009685D01*
X016123Y009627D02*
X015081Y009627D01*
X015121Y009568D02*
X016082Y009568D01*
X016082Y009510D02*
X015121Y009510D01*
X015121Y009451D02*
X016082Y009451D01*
X016082Y009393D02*
X015121Y009393D01*
X015121Y009334D02*
X016082Y009334D01*
X016082Y009276D02*
X015121Y009276D01*
X015121Y009217D02*
X016082Y009217D01*
X016082Y009159D02*
X015121Y009159D01*
X015121Y009100D02*
X016082Y009100D01*
X016082Y009042D02*
X015121Y009042D01*
X015121Y008983D02*
X016082Y008983D01*
X016082Y008925D02*
X015121Y008925D01*
X015121Y008866D02*
X016082Y008866D01*
X016082Y008808D02*
X015121Y008808D01*
X015121Y008749D02*
X016082Y008749D01*
X016082Y008691D02*
X015121Y008691D01*
X015102Y008632D02*
X016101Y008632D01*
X014310Y009393D02*
X014021Y009393D01*
X013963Y009451D02*
X014310Y009451D01*
X014310Y009510D02*
X013904Y009510D01*
X013846Y009568D02*
X014310Y009568D01*
X014351Y009627D02*
X013787Y009627D01*
X013618Y008457D02*
X013980Y008457D01*
X013921Y008398D02*
X013562Y008398D01*
X013562Y008340D02*
X013883Y008340D01*
X013859Y008281D02*
X013562Y008281D01*
X013562Y008223D02*
X013851Y008223D01*
X013851Y008164D02*
X013562Y008164D01*
X013755Y008106D02*
X013864Y008106D01*
X013889Y008047D02*
X013777Y008047D01*
X013777Y007989D02*
X013935Y007989D01*
X006074Y002139D02*
X005986Y002139D01*
X006015Y002080D02*
X005226Y002080D01*
X005168Y002022D02*
X005999Y002022D01*
X005999Y001963D02*
X005112Y001963D01*
X005112Y001905D02*
X005999Y001905D01*
X005999Y001846D02*
X005112Y001846D01*
X005112Y001788D02*
X005999Y001788D01*
X005999Y001729D02*
X005112Y001729D01*
X005112Y001671D02*
X005999Y001671D01*
X005999Y001612D02*
X005112Y001612D01*
X005112Y001554D02*
X005999Y001554D01*
X005999Y001495D02*
X005112Y001495D01*
X005112Y001437D02*
X006019Y001437D01*
X006059Y001378D02*
X005112Y001378D01*
X005090Y001320D02*
X006057Y001320D01*
X005998Y001261D02*
X003635Y001261D01*
X004145Y001320D02*
X004167Y001320D01*
X004363Y001320D02*
X004421Y001320D01*
X004421Y001378D02*
X004363Y001378D01*
X004363Y001437D02*
X004421Y001437D01*
X004421Y001495D02*
X004363Y001495D01*
X004363Y001554D02*
X004421Y001554D01*
X004421Y001612D02*
X004363Y001612D01*
X004363Y001671D02*
X004421Y001671D01*
X004616Y001320D02*
X004638Y001320D01*
X005285Y002139D02*
X005317Y002139D01*
X004283Y004128D02*
X004198Y004128D01*
X004259Y004186D02*
X003682Y004186D01*
X001887Y004186D02*
X000642Y004186D01*
X000642Y004128D02*
X001887Y004128D01*
X001887Y004069D02*
X000642Y004069D01*
X000642Y004011D02*
X001887Y004011D01*
X001887Y003952D02*
X000642Y003952D01*
X000642Y003894D02*
X001887Y003894D01*
X001887Y003835D02*
X000642Y003835D01*
X000642Y003777D02*
X001887Y003777D01*
X001887Y003718D02*
X000642Y003718D01*
X000642Y003660D02*
X001887Y003660D01*
X001887Y003601D02*
X000642Y003601D01*
X000642Y003543D02*
X001887Y003543D01*
X001887Y003484D02*
X000642Y003484D01*
X000642Y003426D02*
X001887Y003426D01*
X001887Y003367D02*
X000642Y003367D01*
X000642Y003309D02*
X001887Y003309D01*
X001887Y003250D02*
X000642Y003250D01*
X000642Y003192D02*
X001887Y003192D01*
X001887Y003133D02*
X000642Y003133D01*
X000642Y003075D02*
X001887Y003075D01*
X001887Y003016D02*
X000642Y003016D01*
X000642Y002958D02*
X001887Y002958D01*
X001887Y002899D02*
X000642Y002899D01*
X000642Y002841D02*
X001887Y002841D01*
X001887Y002782D02*
X000642Y002782D01*
X000642Y002724D02*
X001887Y002724D01*
X001887Y002665D02*
X000642Y002665D01*
X000642Y002607D02*
X001887Y002607D01*
X001887Y002548D02*
X000642Y002548D01*
X000642Y002490D02*
X001887Y002490D01*
X001887Y002431D02*
X000642Y002431D01*
X000642Y002373D02*
X001887Y002373D01*
X001887Y002314D02*
X000642Y002314D01*
X000642Y002256D02*
X001887Y002256D01*
X001887Y002197D02*
X000642Y002197D01*
X000642Y002139D02*
X001887Y002139D01*
X001887Y002080D02*
X000642Y002080D01*
X000642Y002022D02*
X001887Y002022D01*
X001887Y001963D02*
X000642Y001963D01*
X000642Y001905D02*
X001887Y001905D01*
X001887Y001846D02*
X000642Y001846D01*
X000642Y001788D02*
X001887Y001788D01*
X001887Y001729D02*
X000642Y001729D01*
X000642Y001671D02*
X001887Y001671D01*
X001887Y001612D02*
X000642Y001612D01*
X000642Y001554D02*
X001887Y001554D01*
X001887Y001495D02*
X000642Y001495D01*
X000642Y001437D02*
X001887Y001437D01*
X001887Y001378D02*
X000642Y001378D01*
X000642Y001320D02*
X001887Y001320D01*
X001887Y001261D02*
X000642Y001261D01*
X000642Y001203D02*
X001935Y001203D01*
X001993Y001144D02*
X000642Y001144D01*
X000642Y001086D02*
X002052Y001086D01*
X002110Y001027D02*
X000642Y001027D01*
X000642Y000969D02*
X002169Y000969D01*
X002227Y000910D02*
X000642Y000910D01*
X000642Y000852D02*
X002286Y000852D01*
X002344Y000793D02*
X000642Y000793D01*
X000642Y000735D02*
X002403Y000735D01*
X002461Y000676D02*
X000642Y000676D01*
X000642Y000618D02*
X002520Y000618D01*
X002578Y000559D02*
X000642Y000559D01*
X000642Y000501D02*
X002637Y000501D01*
X001887Y004245D02*
X000642Y004245D01*
X000642Y004303D02*
X001887Y004303D01*
X001887Y004362D02*
X000642Y004362D01*
X000642Y004420D02*
X001887Y004420D01*
X001887Y004479D02*
X000642Y004479D01*
X000642Y004537D02*
X001887Y004537D01*
X001887Y004596D02*
X000642Y004596D01*
X000642Y004654D02*
X001887Y004654D01*
X001887Y004713D02*
X000642Y004713D01*
X000642Y004771D02*
X001887Y004771D01*
X001887Y004830D02*
X000642Y004830D01*
X000642Y004888D02*
X001887Y004888D01*
X001887Y004947D02*
X000642Y004947D01*
X000642Y005005D02*
X001887Y005005D01*
X001887Y005064D02*
X000642Y005064D01*
X000642Y005122D02*
X001887Y005122D01*
X001887Y005181D02*
X000642Y005181D01*
X000642Y005239D02*
X001887Y005239D01*
X001887Y005298D02*
X000642Y005298D01*
X000642Y005356D02*
X001887Y005356D01*
X001887Y005415D02*
X000642Y005415D01*
X000642Y005473D02*
X001887Y005473D01*
X001887Y005532D02*
X000642Y005532D01*
X000642Y005590D02*
X001887Y005590D01*
X001887Y005649D02*
X000642Y005649D01*
X000642Y005707D02*
X001887Y005707D01*
X001887Y005766D02*
X000642Y005766D01*
X000642Y005824D02*
X001887Y005824D01*
X001887Y005883D02*
X000642Y005883D01*
X000642Y005941D02*
X001887Y005941D01*
X001887Y006000D02*
X000642Y006000D01*
X000642Y006058D02*
X001830Y006058D01*
X001772Y006117D02*
X000642Y006117D01*
X000642Y006175D02*
X001713Y006175D01*
D25*
X001367Y005600D03*
X001367Y003500D03*
X001367Y001000D03*
X007467Y000900D03*
X009867Y005300D03*
X004167Y010000D03*
X002867Y010000D03*
X001567Y010000D03*
X016167Y003600D03*
X016167Y002300D03*
X016167Y001100D03*
M02*
