G75*
G70*
%OFA0B0*%
%FSLAX24Y24*%
%IPPOS*%
%LPD*%
%AMOC8*
5,1,8,0,0,1.08239X$1,22.5*
%
%ADD10C,0.0060*%
%ADD11R,0.0079X0.0079*%
%ADD12C,0.0020*%
%ADD13C,0.0050*%
%ADD14R,0.0276X0.0236*%
%ADD15C,0.0040*%
D10*
X005962Y002070D02*
X005962Y004690D01*
X006102Y004830D01*
X008722Y004830D01*
X008722Y002070D01*
X005962Y002070D01*
X006121Y004530D02*
X006123Y004553D01*
X006129Y004576D01*
X006138Y004597D01*
X006151Y004617D01*
X006167Y004634D01*
X006185Y004648D01*
X006205Y004659D01*
X006227Y004667D01*
X006250Y004671D01*
X006274Y004671D01*
X006297Y004667D01*
X006319Y004659D01*
X006339Y004648D01*
X006357Y004634D01*
X006373Y004617D01*
X006386Y004597D01*
X006395Y004576D01*
X006401Y004553D01*
X006403Y004530D01*
X006401Y004507D01*
X006395Y004484D01*
X006386Y004463D01*
X006373Y004443D01*
X006357Y004426D01*
X006339Y004412D01*
X006319Y004401D01*
X006297Y004393D01*
X006274Y004389D01*
X006250Y004389D01*
X006227Y004393D01*
X006205Y004401D01*
X006185Y004412D01*
X006167Y004426D01*
X006151Y004443D01*
X006138Y004463D01*
X006129Y004484D01*
X006123Y004507D01*
X006121Y004530D01*
X004960Y009555D02*
X005174Y009769D01*
X005174Y010196D01*
X004747Y010196D02*
X004747Y009769D01*
X004960Y009555D01*
X003974Y009769D02*
X003974Y010196D01*
X003547Y010196D02*
X003547Y009769D01*
X003760Y009555D01*
X003974Y009769D01*
X002674Y009769D02*
X002674Y010196D01*
X002247Y010196D02*
X002247Y009769D01*
X002460Y009555D01*
X002674Y009769D01*
X001374Y009769D02*
X001374Y010196D01*
X000947Y010196D02*
X000947Y009769D01*
X001160Y009555D01*
X001374Y009769D01*
X006247Y009682D02*
X006460Y009896D01*
X006674Y009682D01*
X007447Y009682D02*
X007660Y009896D01*
X007874Y009682D01*
X008747Y009682D02*
X008960Y009896D01*
X009174Y009682D01*
X010047Y009682D02*
X010260Y009896D01*
X010474Y009682D01*
X011957Y009615D02*
X011957Y009835D01*
X012277Y009835D01*
X011957Y008935D02*
X011957Y008715D01*
X012277Y008715D01*
X014421Y008331D02*
X014421Y005969D01*
X016783Y005969D01*
X016783Y008331D01*
X014421Y008331D01*
X014913Y007150D02*
X014915Y007202D01*
X014921Y007254D01*
X014931Y007305D01*
X014944Y007355D01*
X014962Y007405D01*
X014983Y007452D01*
X015007Y007498D01*
X015036Y007542D01*
X015067Y007584D01*
X015101Y007623D01*
X015138Y007660D01*
X015178Y007693D01*
X015221Y007724D01*
X015265Y007751D01*
X015311Y007775D01*
X015360Y007795D01*
X015409Y007811D01*
X015460Y007824D01*
X015511Y007833D01*
X015563Y007838D01*
X015615Y007839D01*
X015667Y007836D01*
X015719Y007829D01*
X015770Y007818D01*
X015820Y007804D01*
X015869Y007785D01*
X015916Y007763D01*
X015961Y007738D01*
X016005Y007709D01*
X016046Y007677D01*
X016085Y007642D01*
X016120Y007604D01*
X016153Y007563D01*
X016183Y007521D01*
X016209Y007476D01*
X016232Y007429D01*
X016251Y007380D01*
X016267Y007330D01*
X016279Y007280D01*
X016287Y007228D01*
X016291Y007176D01*
X016291Y007124D01*
X016287Y007072D01*
X016279Y007020D01*
X016267Y006970D01*
X016251Y006920D01*
X016232Y006871D01*
X016209Y006824D01*
X016183Y006779D01*
X016153Y006737D01*
X016120Y006696D01*
X016085Y006658D01*
X016046Y006623D01*
X016005Y006591D01*
X015961Y006562D01*
X015916Y006537D01*
X015869Y006515D01*
X015820Y006496D01*
X015770Y006482D01*
X015719Y006471D01*
X015667Y006464D01*
X015615Y006461D01*
X015563Y006462D01*
X015511Y006467D01*
X015460Y006476D01*
X015409Y006489D01*
X015360Y006505D01*
X015311Y006525D01*
X015265Y006549D01*
X015221Y006576D01*
X015178Y006607D01*
X015138Y006640D01*
X015101Y006677D01*
X015067Y006716D01*
X015036Y006758D01*
X015007Y006802D01*
X014983Y006848D01*
X014962Y006895D01*
X014944Y006945D01*
X014931Y006995D01*
X014921Y007046D01*
X014915Y007098D01*
X014913Y007150D01*
X015492Y006375D02*
X015492Y005525D01*
X015492Y005375D01*
X012592Y005375D01*
X012592Y005225D01*
X012592Y004525D01*
X012592Y004375D01*
X015492Y004375D01*
X015492Y004225D01*
X015492Y003525D01*
X015492Y003375D01*
X012592Y003375D01*
X012592Y003225D01*
X012592Y002525D01*
X015492Y002525D01*
X015492Y002375D01*
X012592Y002375D01*
X012592Y002225D01*
X012592Y001525D01*
X012592Y001375D01*
X012592Y001225D01*
X012592Y000375D01*
X012392Y000375D01*
X012392Y006375D01*
X012592Y006375D01*
X012592Y005525D01*
X012592Y005375D01*
X012592Y004375D02*
X012592Y004225D01*
X012592Y003525D01*
X012592Y003375D01*
X012592Y002525D02*
X012592Y002375D01*
X012592Y001375D02*
X015492Y001375D01*
X015492Y001225D01*
X015492Y000375D01*
X012592Y000375D01*
X015492Y001375D02*
X015492Y001525D01*
X015492Y002225D01*
X015492Y002375D01*
X015492Y002525D02*
X015492Y003225D01*
X015492Y003375D01*
X015492Y004375D02*
X015492Y004525D01*
X015492Y005225D01*
X015492Y005375D01*
X015492Y006375D02*
X012592Y006375D01*
D11*
X010192Y008789D03*
X008917Y008789D03*
X007642Y008789D03*
X006367Y008789D03*
X005092Y008789D03*
X003817Y008789D03*
X002542Y008789D03*
X001267Y008789D03*
D12*
X012592Y005525D02*
X015492Y005525D01*
X015492Y005225D02*
X012592Y005225D01*
X012592Y004525D02*
X015492Y004525D01*
X015492Y004225D02*
X012592Y004225D01*
X012592Y003525D02*
X015492Y003525D01*
X015492Y003225D02*
X012592Y003225D01*
X012592Y002225D02*
X015492Y002225D01*
X015492Y001525D02*
X012592Y001525D01*
X012592Y001225D02*
X015492Y001225D01*
D13*
X015382Y002222D02*
X014201Y002222D01*
X014201Y003403D01*
X015382Y003403D01*
X015382Y002222D01*
X013317Y002100D02*
X013017Y002100D01*
X013017Y001875D01*
X013167Y001950D01*
X013242Y001950D01*
X013317Y001875D01*
X013317Y001725D01*
X013242Y001650D01*
X013092Y001650D01*
X013017Y001725D01*
X013317Y001100D02*
X013167Y001025D01*
X013017Y000875D01*
X013242Y000875D01*
X013317Y000800D01*
X013317Y000725D01*
X013242Y000650D01*
X013092Y000650D01*
X013017Y000725D01*
X013017Y000875D01*
X013242Y002650D02*
X013242Y003100D01*
X013017Y002875D01*
X013317Y002875D01*
X013242Y003650D02*
X013092Y003650D01*
X013017Y003725D01*
X013167Y003875D02*
X013242Y003875D01*
X013317Y003800D01*
X013317Y003725D01*
X013242Y003650D01*
X013242Y003875D02*
X013317Y003950D01*
X013317Y004025D01*
X013242Y004100D01*
X013092Y004100D01*
X013017Y004025D01*
X013017Y004650D02*
X013317Y004950D01*
X013317Y005025D01*
X013242Y005100D01*
X013092Y005100D01*
X013017Y005025D01*
X013017Y004650D02*
X013317Y004650D01*
D14*
X014716Y005851D03*
X016487Y005851D03*
X016487Y008449D03*
X014716Y008449D03*
D15*
X003762Y002006D02*
X003762Y001494D01*
X005022Y001494D02*
X005022Y002006D01*
M02*
