G75*
G70*
%OFA0B0*%
%FSLAX24Y24*%
%IPPOS*%
%LPD*%
%AMOC8*
5,1,8,0,0,1.08239X$1,22.5*
%
%ADD10C,0.0040*%
%ADD11C,0.0050*%
D10*
X011777Y007813D02*
X011777Y008811D01*
X012127Y008915D02*
X012208Y008915D01*
X012311Y009856D01*
X012515Y009856D01*
X012617Y008915D01*
X012699Y008915D01*
X012597Y009999D01*
X012593Y010018D01*
X012587Y010037D01*
X012577Y010054D01*
X012565Y010070D01*
X012550Y010083D01*
X012533Y010094D01*
X012515Y010101D01*
X012290Y010101D02*
X012272Y010094D01*
X012255Y010083D01*
X012240Y010070D01*
X012228Y010054D01*
X012218Y010037D01*
X012212Y010018D01*
X012208Y009999D01*
X012127Y008915D01*
X012883Y008404D02*
X012801Y009999D01*
X012803Y010015D01*
X012807Y010030D01*
X012815Y010045D01*
X012825Y010057D01*
X012837Y010067D01*
X012852Y010075D01*
X012867Y010079D01*
X012883Y010081D01*
X012883Y010080D02*
X012883Y010080D01*
X012883Y010081D02*
X012899Y010079D01*
X012914Y010075D01*
X012929Y010067D01*
X012941Y010057D01*
X012951Y010045D01*
X012959Y010030D01*
X012963Y010015D01*
X012965Y009999D01*
X013046Y008650D01*
X013537Y008650D01*
X013619Y009999D01*
X013618Y009999D02*
X013620Y010015D01*
X013624Y010030D01*
X013632Y010045D01*
X013642Y010057D01*
X013654Y010067D01*
X013669Y010075D01*
X013684Y010079D01*
X013700Y010081D01*
X013716Y010079D01*
X013731Y010075D01*
X013746Y010067D01*
X013758Y010057D01*
X013768Y010045D01*
X013776Y010030D01*
X013780Y010015D01*
X013782Y009999D01*
X013700Y008404D01*
X013701Y008404D02*
X013698Y008386D01*
X013691Y008369D01*
X013682Y008354D01*
X013669Y008341D01*
X013654Y008332D01*
X013637Y008325D01*
X013619Y008322D01*
X013619Y008323D02*
X012965Y008323D01*
X012964Y008322D02*
X012946Y008325D01*
X012929Y008332D01*
X012914Y008341D01*
X012901Y008354D01*
X012892Y008369D01*
X012885Y008386D01*
X012882Y008404D01*
X012269Y007487D02*
X011983Y007487D01*
X012269Y007487D02*
X012269Y007042D01*
X011983Y007042D01*
X013884Y008915D02*
X013966Y008915D01*
X014068Y009856D01*
X014273Y009856D01*
X014375Y008915D01*
X014457Y008915D01*
X014375Y009999D01*
X014371Y010018D01*
X014365Y010037D01*
X014355Y010054D01*
X014343Y010070D01*
X014328Y010083D01*
X014311Y010094D01*
X014293Y010101D01*
X014068Y010101D02*
X014050Y010094D01*
X014033Y010083D01*
X014018Y010070D01*
X014006Y010054D01*
X013996Y010037D01*
X013990Y010018D01*
X013986Y009999D01*
X013987Y009999D02*
X013884Y008915D01*
X014069Y010100D02*
X014106Y010109D01*
X014143Y010115D01*
X014181Y010117D01*
X014219Y010115D01*
X014256Y010109D01*
X014293Y010100D01*
X014804Y009938D02*
X014804Y010530D01*
X011779Y010530D01*
X011779Y009938D01*
X012291Y010100D02*
X012328Y010109D01*
X012365Y010115D01*
X012403Y010117D01*
X012441Y010115D01*
X012478Y010109D01*
X012515Y010100D01*
X011777Y010532D02*
X014806Y010532D01*
X014804Y010530D02*
X014804Y010530D01*
X014806Y008831D02*
X014806Y007773D01*
X014600Y007487D02*
X014355Y007487D01*
X014355Y007036D01*
X014604Y007036D01*
D11*
X002367Y002975D02*
X002367Y001975D01*
X007867Y001975D01*
X009367Y003475D01*
X009367Y007475D01*
X007867Y008975D01*
X002367Y008975D01*
X002367Y007975D01*
X002443Y007973D01*
X002519Y007967D01*
X002594Y007958D01*
X002669Y007944D01*
X002743Y007927D01*
X002816Y007906D01*
X002888Y007882D01*
X002959Y007853D01*
X003028Y007822D01*
X003095Y007787D01*
X003160Y007748D01*
X003224Y007706D01*
X003285Y007661D01*
X003344Y007613D01*
X003400Y007562D01*
X003454Y007508D01*
X003505Y007452D01*
X003553Y007393D01*
X003598Y007332D01*
X003640Y007268D01*
X003679Y007203D01*
X003714Y007136D01*
X003745Y007067D01*
X003774Y006996D01*
X003798Y006924D01*
X003819Y006851D01*
X003836Y006777D01*
X003850Y006702D01*
X003859Y006627D01*
X003865Y006551D01*
X003867Y006475D01*
X003867Y004475D01*
X003865Y004399D01*
X003859Y004323D01*
X003850Y004248D01*
X003836Y004173D01*
X003819Y004099D01*
X003798Y004026D01*
X003774Y003954D01*
X003745Y003883D01*
X003714Y003814D01*
X003679Y003747D01*
X003640Y003682D01*
X003598Y003618D01*
X003553Y003557D01*
X003505Y003498D01*
X003454Y003442D01*
X003400Y003388D01*
X003344Y003337D01*
X003285Y003289D01*
X003224Y003244D01*
X003160Y003202D01*
X003095Y003163D01*
X003028Y003128D01*
X002959Y003097D01*
X002888Y003068D01*
X002816Y003044D01*
X002743Y003023D01*
X002669Y003006D01*
X002594Y002992D01*
X002519Y002983D01*
X002443Y002977D01*
X002367Y002975D01*
M02*
