%
M48
M72
T01C0.0236
T02C0.0320
T03C0.0354
%
T01
X1367Y1000
X2942Y1350
X1367Y3500
X1367Y5600
X3192Y8500
X2867Y10000
X4167Y10000
X1567Y10000
X7367Y10150
X8267Y9700
X12267Y7700
X9867Y5300
X8342Y2650
X7467Y900
X16167Y1100
X16167Y2300
X16167Y3600
T02
X11992Y3875
X11992Y2875
X11992Y1875
X11992Y875
X11992Y4875
X11992Y5875
T03
X12426Y8200
X14158Y8200
M30
