G75*
G70*
%OFA0B0*%
%FSLAX24Y24*%
%IPPOS*%
%LPD*%
%AMOC8*
5,1,8,0,0,1.08239X$1,22.5*
%
%ADD10C,0.0600*%
%ADD11R,0.0867X0.1064*%
%ADD12R,0.0867X0.1379*%
%ADD13R,0.0277X0.1300*%
%ADD14C,0.0434*%
%ADD15C,0.3200*%
%ADD16R,0.2080X0.1180*%
%ADD17C,0.5080*%
%ADD18R,0.0476X0.0476*%
%ADD19C,0.0476*%
D10*
X011732Y000875D02*
X012252Y000875D01*
X012252Y001875D02*
X011732Y001875D01*
X011732Y002875D02*
X012252Y002875D01*
X012252Y003875D02*
X011732Y003875D01*
X011732Y004875D02*
X012252Y004875D01*
X012252Y005875D02*
X011732Y005875D01*
D11*
X011540Y009381D03*
X015044Y009381D03*
D12*
X015044Y007058D03*
X011540Y007058D03*
D13*
X012662Y007019D03*
X012977Y007019D03*
X013292Y007019D03*
X013607Y007019D03*
X013922Y007019D03*
D14*
X014158Y008200D03*
X012426Y008200D03*
D15*
X004267Y005475D02*
X004269Y005555D01*
X004275Y005634D01*
X004285Y005713D01*
X004299Y005792D01*
X004316Y005870D01*
X004338Y005947D01*
X004363Y006022D01*
X004393Y006096D01*
X004425Y006169D01*
X004462Y006240D01*
X004502Y006309D01*
X004545Y006376D01*
X004592Y006441D01*
X004641Y006503D01*
X004694Y006563D01*
X004750Y006620D01*
X004808Y006675D01*
X004869Y006726D01*
X004933Y006774D01*
X004999Y006819D01*
X005067Y006861D01*
X005137Y006899D01*
X005209Y006933D01*
X005282Y006964D01*
X005357Y006992D01*
X005434Y007015D01*
X005511Y007035D01*
X005589Y007051D01*
X005668Y007063D01*
X005747Y007071D01*
X005827Y007075D01*
X005907Y007075D01*
X005987Y007071D01*
X006066Y007063D01*
X006145Y007051D01*
X006223Y007035D01*
X006300Y007015D01*
X006377Y006992D01*
X006452Y006964D01*
X006525Y006933D01*
X006597Y006899D01*
X006667Y006861D01*
X006735Y006819D01*
X006801Y006774D01*
X006865Y006726D01*
X006926Y006675D01*
X006984Y006620D01*
X007040Y006563D01*
X007093Y006503D01*
X007142Y006441D01*
X007189Y006376D01*
X007232Y006309D01*
X007272Y006240D01*
X007309Y006169D01*
X007341Y006096D01*
X007371Y006022D01*
X007396Y005947D01*
X007418Y005870D01*
X007435Y005792D01*
X007449Y005713D01*
X007459Y005634D01*
X007465Y005555D01*
X007467Y005475D01*
X007465Y005395D01*
X007459Y005316D01*
X007449Y005237D01*
X007435Y005158D01*
X007418Y005080D01*
X007396Y005003D01*
X007371Y004928D01*
X007341Y004854D01*
X007309Y004781D01*
X007272Y004710D01*
X007232Y004641D01*
X007189Y004574D01*
X007142Y004509D01*
X007093Y004447D01*
X007040Y004387D01*
X006984Y004330D01*
X006926Y004275D01*
X006865Y004224D01*
X006801Y004176D01*
X006735Y004131D01*
X006667Y004089D01*
X006597Y004051D01*
X006525Y004017D01*
X006452Y003986D01*
X006377Y003958D01*
X006300Y003935D01*
X006223Y003915D01*
X006145Y003899D01*
X006066Y003887D01*
X005987Y003879D01*
X005907Y003875D01*
X005827Y003875D01*
X005747Y003879D01*
X005668Y003887D01*
X005589Y003899D01*
X005511Y003915D01*
X005434Y003935D01*
X005357Y003958D01*
X005282Y003986D01*
X005209Y004017D01*
X005137Y004051D01*
X005067Y004089D01*
X004999Y004131D01*
X004933Y004176D01*
X004869Y004224D01*
X004808Y004275D01*
X004750Y004330D01*
X004694Y004387D01*
X004641Y004447D01*
X004592Y004509D01*
X004545Y004574D01*
X004502Y004641D01*
X004462Y004710D01*
X004425Y004781D01*
X004393Y004854D01*
X004363Y004928D01*
X004338Y005003D01*
X004316Y005080D01*
X004299Y005158D01*
X004285Y005237D01*
X004275Y005316D01*
X004269Y005395D01*
X004267Y005475D01*
D16*
X005867Y009775D03*
X005867Y001175D03*
D17*
X005867Y005475D03*
D18*
X008342Y002650D03*
X002942Y001350D03*
X003192Y008500D03*
X007367Y010150D03*
X008267Y009700D03*
X012267Y007700D03*
D19*
X001367Y001000D03*
X001367Y003500D03*
X001367Y005600D03*
X001567Y010000D03*
X002867Y010000D03*
X004167Y010000D03*
X009867Y005300D03*
X007467Y000900D03*
X016167Y001100D03*
X016167Y002300D03*
X016167Y003600D03*
M02*
